M48
;DRILL file {Pcbnew (2013-jul-07)-stable} date Wed 30 Dec 2015 07:31:03 PM CST
;FORMAT={3:3/ absolute / metric / keep zeros}
FMAT,2
METRIC,TZ
T1C0.350
T2C1.100
T3C1.200
%
G90
G05
M71
T1
X166150Y-041750
X166425Y-040150
X166850Y-038625
X167400Y-037125
X168050Y-035725
X168850Y-034325
X169750Y-033050
X170750Y-031850
X171900Y-030700
X172050Y-042150
X173125Y-029675
X173700Y-045200
X174450Y-028750
X174900Y-038300
X174900Y-042300
X175050Y-036350
X175825Y-027950
X175900Y-042600
X176000Y-036700
X177100Y-035600
X177250Y-027250
X177300Y-038500
X178200Y-039750
X178800Y-026700
X179000Y-035400
X179100Y-044550
X179500Y-042200
X179550Y-037350
X179850Y-038800
X180300Y-026300
X180300Y-031900
X181200Y-041500
X181700Y-038300
X181800Y-030300
X181900Y-026050
X182000Y-035800
X182300Y-040500
X183400Y-035250
X183800Y-037050
X184200Y-033000
X184300Y-034000
X184400Y-035900
X185100Y-039400
T2
X180809Y-043891
X183991Y-040709
T3
X177839Y-046012G85X178688Y-046861
G05
X186112Y-037739G85X186961Y-038588
G05
T0
M30
