G04 (created by PCBNEW (2013-jul-07)-stable) date Wed 30 Dec 2015 07:31:02 PM CST*
%MOIN*%
G04 Gerber Fmt 3.4, Leading zero omitted, Abs format*
%FSLAX34Y34*%
G01*
G70*
G90*
G04 APERTURE LIST*
%ADD10C,0.00590551*%
%ADD11C,0.00393701*%
%ADD12C,0.0028*%
G04 APERTURE END LIST*
G54D10*
G54D11*
X68299Y-12013D02*
X68224Y-12088D01*
X68466Y-12180D01*
X68391Y-12255D01*
X68301Y-12345D02*
X68214Y-12257D01*
X68203Y-12236D01*
X68206Y-12217D01*
X68227Y-12196D01*
X68246Y-12194D01*
X68293Y-12337D02*
X68312Y-12334D01*
X68338Y-12308D01*
X68341Y-12289D01*
X68330Y-12268D01*
X68315Y-12252D01*
X68293Y-12241D01*
X68275Y-12244D01*
X68248Y-12270D01*
X68230Y-12273D01*
X68193Y-12438D02*
X68211Y-12435D01*
X68232Y-12414D01*
X68235Y-12395D01*
X68232Y-12382D01*
X68222Y-12361D01*
X68174Y-12313D01*
X68153Y-12302D01*
X68140Y-12300D01*
X68121Y-12302D01*
X68100Y-12324D01*
X68097Y-12342D01*
X68153Y-12493D02*
X67986Y-12326D01*
X68105Y-12541D02*
X68018Y-12453D01*
X68007Y-12432D01*
X68010Y-12414D01*
X68026Y-12398D01*
X68044Y-12395D01*
X68057Y-12398D01*
X67843Y-12628D02*
X67880Y-12591D01*
X67967Y-12679D02*
X67800Y-12512D01*
X67747Y-12565D01*
X67872Y-12774D02*
X67760Y-12663D01*
X67792Y-12695D02*
X67771Y-12684D01*
X67758Y-12681D01*
X67739Y-12684D01*
X67729Y-12695D01*
X67752Y-12878D02*
X67771Y-12875D01*
X67792Y-12854D01*
X67795Y-12835D01*
X67784Y-12814D01*
X67721Y-12750D01*
X67699Y-12740D01*
X67681Y-12742D01*
X67660Y-12764D01*
X67657Y-12782D01*
X67668Y-12803D01*
X67684Y-12819D01*
X67752Y-12782D01*
X67660Y-12986D02*
X67493Y-12819D01*
X67652Y-12978D02*
X67670Y-12976D01*
X67692Y-12955D01*
X67694Y-12936D01*
X67692Y-12923D01*
X67681Y-12902D01*
X67633Y-12854D01*
X67612Y-12843D01*
X67599Y-12841D01*
X67580Y-12843D01*
X67559Y-12864D01*
X67556Y-12883D01*
X67607Y-13039D02*
X67495Y-12928D01*
X67440Y-12872D02*
X67453Y-12875D01*
X67456Y-12888D01*
X67442Y-12886D01*
X67440Y-12872D01*
X67456Y-12888D01*
X67442Y-12981D02*
X67554Y-13092D01*
X67458Y-12997D02*
X67445Y-12994D01*
X67426Y-12997D01*
X67410Y-13013D01*
X67408Y-13031D01*
X67418Y-13053D01*
X67506Y-13140D01*
X68876Y-12294D02*
X68709Y-12127D01*
X68682Y-12153D01*
X68674Y-12177D01*
X68680Y-12203D01*
X68690Y-12225D01*
X68717Y-12262D01*
X68741Y-12286D01*
X68778Y-12312D01*
X68799Y-12323D01*
X68825Y-12328D01*
X68849Y-12320D01*
X68876Y-12294D01*
X68714Y-12439D02*
X68733Y-12437D01*
X68754Y-12416D01*
X68757Y-12397D01*
X68746Y-12376D01*
X68682Y-12312D01*
X68661Y-12302D01*
X68643Y-12304D01*
X68621Y-12325D01*
X68619Y-12344D01*
X68629Y-12365D01*
X68645Y-12381D01*
X68714Y-12344D01*
X68613Y-12540D02*
X68632Y-12537D01*
X68653Y-12516D01*
X68656Y-12498D01*
X68653Y-12484D01*
X68643Y-12463D01*
X68595Y-12416D01*
X68574Y-12405D01*
X68560Y-12402D01*
X68542Y-12405D01*
X68521Y-12426D01*
X68518Y-12445D01*
X68523Y-12630D02*
X68542Y-12628D01*
X68563Y-12606D01*
X68566Y-12588D01*
X68555Y-12567D01*
X68491Y-12503D01*
X68470Y-12492D01*
X68452Y-12495D01*
X68430Y-12516D01*
X68428Y-12535D01*
X68438Y-12556D01*
X68454Y-12572D01*
X68523Y-12535D01*
X68478Y-12691D02*
X68367Y-12580D01*
X68383Y-12596D02*
X68369Y-12593D01*
X68351Y-12596D01*
X68335Y-12612D01*
X68332Y-12630D01*
X68343Y-12651D01*
X68430Y-12739D01*
X68343Y-12651D02*
X68322Y-12641D01*
X68303Y-12644D01*
X68287Y-12659D01*
X68285Y-12678D01*
X68295Y-12699D01*
X68383Y-12787D01*
X68330Y-12840D02*
X68163Y-12673D01*
X68226Y-12736D02*
X68208Y-12739D01*
X68187Y-12760D01*
X68184Y-12779D01*
X68187Y-12792D01*
X68197Y-12813D01*
X68245Y-12861D01*
X68266Y-12872D01*
X68279Y-12874D01*
X68298Y-12872D01*
X68319Y-12850D01*
X68322Y-12832D01*
X68179Y-12975D02*
X68197Y-12972D01*
X68218Y-12951D01*
X68221Y-12933D01*
X68210Y-12911D01*
X68147Y-12848D01*
X68126Y-12837D01*
X68107Y-12840D01*
X68086Y-12861D01*
X68083Y-12879D01*
X68094Y-12901D01*
X68110Y-12917D01*
X68179Y-12879D01*
X68133Y-13036D02*
X68022Y-12925D01*
X68054Y-12956D02*
X68033Y-12946D01*
X68019Y-12943D01*
X68001Y-12946D01*
X67990Y-12956D01*
X67834Y-13033D02*
X67821Y-13031D01*
X67802Y-13033D01*
X67776Y-13060D01*
X67773Y-13078D01*
X67776Y-13092D01*
X67786Y-13113D01*
X67802Y-13129D01*
X67831Y-13147D01*
X67990Y-13179D01*
X67921Y-13248D01*
X67685Y-13150D02*
X67675Y-13161D01*
X67672Y-13179D01*
X67675Y-13192D01*
X67685Y-13214D01*
X67712Y-13251D01*
X67752Y-13290D01*
X67789Y-13317D01*
X67810Y-13328D01*
X67823Y-13330D01*
X67842Y-13328D01*
X67852Y-13317D01*
X67855Y-13298D01*
X67852Y-13285D01*
X67842Y-13264D01*
X67815Y-13227D01*
X67776Y-13187D01*
X67738Y-13161D01*
X67717Y-13150D01*
X67704Y-13147D01*
X67685Y-13150D01*
X67709Y-13460D02*
X67773Y-13397D01*
X67741Y-13428D02*
X67574Y-13261D01*
X67609Y-13275D01*
X67635Y-13280D01*
X67654Y-13277D01*
X67441Y-13394D02*
X67495Y-13341D01*
X67579Y-13415D01*
X67566Y-13412D01*
X67548Y-13415D01*
X67521Y-13442D01*
X67518Y-13460D01*
X67521Y-13473D01*
X67532Y-13495D01*
X67571Y-13534D01*
X67593Y-13545D01*
X67606Y-13548D01*
X67624Y-13545D01*
X67651Y-13518D01*
X67654Y-13500D01*
X67651Y-13487D01*
G54D12*
X72197Y-13249D02*
X72197Y-13449D01*
X72197Y-13449D02*
X71897Y-13449D01*
X71897Y-13449D02*
X71897Y-13249D01*
X72197Y-13049D02*
X72197Y-12849D01*
X72197Y-12849D02*
X71897Y-12849D01*
X71897Y-12849D02*
X71897Y-13049D01*
X68201Y-15907D02*
X68201Y-16107D01*
X68201Y-16107D02*
X67901Y-16107D01*
X67901Y-16107D02*
X67901Y-15907D01*
X68201Y-15707D02*
X68201Y-15507D01*
X68201Y-15507D02*
X67901Y-15507D01*
X67901Y-15507D02*
X67901Y-15707D01*
G54D10*
X73139Y-12135D02*
X73210Y-12099D01*
X73210Y-12099D02*
X73632Y-12945D01*
X73632Y-12945D02*
X73561Y-12980D01*
X72753Y-11359D02*
X73948Y-13755D01*
X73948Y-13755D02*
X73102Y-14177D01*
X73102Y-14177D02*
X71907Y-11781D01*
X71907Y-11781D02*
X72753Y-11359D01*
X67887Y-18208D02*
X67850Y-18278D01*
X67850Y-18278D02*
X67012Y-17842D01*
X67012Y-17842D02*
X67048Y-17772D01*
X68655Y-18608D02*
X66280Y-17372D01*
X66280Y-17372D02*
X66717Y-16534D01*
X66717Y-16534D02*
X69091Y-17770D01*
X69091Y-17770D02*
X68655Y-18608D01*
X68017Y-15235D02*
X67127Y-14344D01*
X67127Y-14344D02*
X67572Y-13898D01*
X67572Y-13898D02*
X68463Y-14789D01*
X68463Y-14789D02*
X68017Y-15235D01*
X70025Y-13227D02*
X69135Y-12336D01*
X69135Y-12336D02*
X69580Y-11890D01*
X69580Y-11890D02*
X70471Y-12781D01*
X70471Y-12781D02*
X70025Y-13227D01*
G54D12*
X71503Y-10805D02*
X71503Y-10605D01*
X71503Y-10605D02*
X71803Y-10605D01*
X71803Y-10605D02*
X71803Y-10805D01*
X71503Y-11005D02*
X71503Y-11205D01*
X71503Y-11205D02*
X71803Y-11205D01*
X71803Y-11205D02*
X71803Y-11005D01*
X70932Y-10903D02*
X70932Y-10703D01*
X70932Y-10703D02*
X71232Y-10703D01*
X71232Y-10703D02*
X71232Y-10903D01*
X70932Y-11103D02*
X70932Y-11303D01*
X70932Y-11303D02*
X71232Y-11303D01*
X71232Y-11303D02*
X71232Y-11103D01*
X70342Y-11041D02*
X70342Y-10841D01*
X70342Y-10841D02*
X70642Y-10841D01*
X70642Y-10841D02*
X70642Y-11041D01*
X70342Y-11241D02*
X70342Y-11441D01*
X70342Y-11441D02*
X70642Y-11441D01*
X70642Y-11441D02*
X70642Y-11241D01*
X69771Y-11238D02*
X69771Y-11038D01*
X69771Y-11038D02*
X70071Y-11038D01*
X70071Y-11038D02*
X70071Y-11238D01*
X69771Y-11438D02*
X69771Y-11638D01*
X69771Y-11638D02*
X70071Y-11638D01*
X70071Y-11638D02*
X70071Y-11438D01*
M02*
