G04 (created by PCBNEW (2013-jul-07)-stable) date Wed 30 Dec 2015 07:31:02 PM CST*
%MOIN*%
G04 Gerber Fmt 3.4, Leading zero omitted, Abs format*
%FSLAX34Y34*%
G01*
G70*
G90*
G04 APERTURE LIST*
%ADD10C,0.00590551*%
%ADD11C,0.00393701*%
%ADD12R,0.0315X0.0275*%
%ADD13R,0.0275X0.0315*%
%ADD14C,0.0944882*%
%ADD15C,0.0433071*%
%ADD16C,0.0295276*%
%ADD17C,0.00787402*%
%ADD18C,0.00984252*%
G04 APERTURE END LIST*
G54D10*
G54D11*
X70522Y-16003D02*
X70634Y-16115D01*
X70538Y-16019D02*
X70536Y-16006D01*
X70538Y-15987D01*
X70554Y-15972D01*
X70573Y-15969D01*
X70594Y-15980D01*
X70681Y-16067D01*
X70750Y-15998D02*
X70732Y-16001D01*
X70718Y-15998D01*
X70697Y-15987D01*
X70650Y-15940D01*
X70639Y-15919D01*
X70636Y-15905D01*
X70639Y-15887D01*
X70655Y-15871D01*
X70673Y-15868D01*
X70687Y-15871D01*
X70708Y-15881D01*
X70756Y-15929D01*
X70766Y-15950D01*
X70769Y-15964D01*
X70766Y-15982D01*
X70750Y-15998D01*
X70968Y-15781D02*
X70801Y-15614D01*
X70960Y-15773D02*
X70957Y-15791D01*
X70936Y-15812D01*
X70917Y-15815D01*
X70904Y-15812D01*
X70883Y-15802D01*
X70835Y-15754D01*
X70825Y-15733D01*
X70822Y-15720D01*
X70825Y-15701D01*
X70846Y-15680D01*
X70864Y-15677D01*
X71068Y-15680D02*
X70981Y-15592D01*
X70960Y-15582D01*
X70941Y-15584D01*
X70920Y-15606D01*
X70917Y-15624D01*
X71061Y-15672D02*
X71058Y-15691D01*
X71031Y-15717D01*
X71013Y-15720D01*
X70992Y-15709D01*
X70976Y-15693D01*
X70965Y-15672D01*
X70968Y-15653D01*
X70994Y-15627D01*
X70997Y-15608D01*
X70994Y-15531D02*
X71037Y-15489D01*
X70954Y-15460D02*
X71098Y-15603D01*
X71119Y-15614D01*
X71137Y-15611D01*
X71148Y-15600D01*
X71233Y-15516D02*
X71145Y-15428D01*
X71124Y-15417D01*
X71106Y-15420D01*
X71084Y-15441D01*
X71082Y-15460D01*
X71225Y-15508D02*
X71222Y-15526D01*
X71196Y-15553D01*
X71177Y-15555D01*
X71156Y-15545D01*
X71140Y-15529D01*
X71129Y-15508D01*
X71132Y-15489D01*
X71159Y-15463D01*
X71161Y-15444D01*
G54D10*
G36*
X71544Y-10843D02*
X71817Y-10807D01*
X71858Y-11120D01*
X71585Y-11155D01*
X71544Y-10843D01*
X71544Y-10843D01*
G37*
G36*
X71488Y-10415D02*
X71760Y-10379D01*
X71801Y-10691D01*
X71529Y-10727D01*
X71488Y-10415D01*
X71488Y-10415D01*
G37*
G36*
X70980Y-10953D02*
X71249Y-10893D01*
X71317Y-11201D01*
X71048Y-11260D01*
X70980Y-10953D01*
X70980Y-10953D01*
G37*
G36*
X70887Y-10531D02*
X71155Y-10471D01*
X71223Y-10779D01*
X70955Y-10838D01*
X70887Y-10531D01*
X70887Y-10531D01*
G37*
G36*
X70417Y-11101D02*
X70680Y-11018D01*
X70774Y-11318D01*
X70512Y-11401D01*
X70417Y-11101D01*
X70417Y-11101D01*
G37*
G36*
X70288Y-10689D02*
X70550Y-10606D01*
X70645Y-10906D01*
X70382Y-10989D01*
X70288Y-10689D01*
X70288Y-10689D01*
G37*
G36*
X69875Y-11307D02*
X70129Y-11202D01*
X70250Y-11493D01*
X69996Y-11598D01*
X69875Y-11307D01*
X69875Y-11307D01*
G37*
G36*
X69710Y-10908D02*
X69964Y-10803D01*
X70084Y-11094D01*
X69830Y-11199D01*
X69710Y-10908D01*
X69710Y-10908D01*
G37*
G36*
X69373Y-11572D02*
X69617Y-11445D01*
X69762Y-11724D01*
X69519Y-11851D01*
X69373Y-11572D01*
X69373Y-11572D01*
G37*
G36*
X69174Y-11188D02*
X69418Y-11061D01*
X69563Y-11341D01*
X69319Y-11468D01*
X69174Y-11188D01*
X69174Y-11188D01*
G37*
G36*
X68872Y-11875D02*
X69104Y-11727D01*
X69273Y-11993D01*
X69041Y-12140D01*
X68872Y-11875D01*
X68872Y-11875D01*
G37*
G36*
X68640Y-11510D02*
X68871Y-11363D01*
X69041Y-11628D01*
X68809Y-11776D01*
X68640Y-11510D01*
X68640Y-11510D01*
G37*
G36*
X68391Y-12216D02*
X68609Y-12049D01*
X68801Y-12299D01*
X68582Y-12466D01*
X68391Y-12216D01*
X68391Y-12216D01*
G37*
G36*
X68128Y-11874D02*
X68346Y-11706D01*
X68538Y-11956D01*
X68319Y-12123D01*
X68128Y-11874D01*
X68128Y-11874D01*
G37*
G36*
X67949Y-12596D02*
X68152Y-12410D01*
X68365Y-12643D01*
X68162Y-12828D01*
X67949Y-12596D01*
X67949Y-12596D01*
G37*
G36*
X67658Y-12278D02*
X67860Y-12092D01*
X68073Y-12324D01*
X67870Y-12510D01*
X67658Y-12278D01*
X67658Y-12278D01*
G37*
G36*
X67548Y-13014D02*
X67734Y-12812D01*
X67966Y-13024D01*
X67780Y-13227D01*
X67548Y-13014D01*
X67548Y-13014D01*
G37*
G36*
X67230Y-12723D02*
X67415Y-12520D01*
X67648Y-12733D01*
X67462Y-12935D01*
X67230Y-12723D01*
X67230Y-12723D01*
G37*
G36*
X67187Y-13451D02*
X67354Y-13233D01*
X67604Y-13425D01*
X67437Y-13643D01*
X67187Y-13451D01*
X67187Y-13451D01*
G37*
G36*
X66844Y-13188D02*
X67011Y-12970D01*
X67261Y-13162D01*
X67094Y-13380D01*
X66844Y-13188D01*
X66844Y-13188D01*
G37*
G36*
X66865Y-13926D02*
X67012Y-13694D01*
X67278Y-13864D01*
X67130Y-14096D01*
X66865Y-13926D01*
X66865Y-13926D01*
G37*
G36*
X66500Y-13694D02*
X66648Y-13462D01*
X66914Y-13632D01*
X66766Y-13864D01*
X66500Y-13694D01*
X66500Y-13694D01*
G37*
G36*
X66582Y-14440D02*
X66709Y-14196D01*
X66989Y-14341D01*
X66862Y-14585D01*
X66582Y-14440D01*
X66582Y-14440D01*
G37*
G36*
X66199Y-14240D02*
X66326Y-13996D01*
X66606Y-14142D01*
X66479Y-14386D01*
X66199Y-14240D01*
X66199Y-14240D01*
G37*
G36*
X66359Y-14952D02*
X66464Y-14698D01*
X66755Y-14819D01*
X66650Y-15073D01*
X66359Y-14952D01*
X66359Y-14952D01*
G37*
G36*
X65960Y-14787D02*
X66065Y-14533D01*
X66356Y-14653D01*
X66251Y-14907D01*
X65960Y-14787D01*
X65960Y-14787D01*
G37*
G36*
X66156Y-15503D02*
X66238Y-15240D01*
X66539Y-15335D01*
X66456Y-15597D01*
X66156Y-15503D01*
X66156Y-15503D01*
G37*
G36*
X65744Y-15373D02*
X65826Y-15110D01*
X66127Y-15205D01*
X66044Y-15467D01*
X65744Y-15373D01*
X65744Y-15373D01*
G37*
G36*
X66031Y-16072D02*
X66090Y-15803D01*
X66398Y-15871D01*
X66338Y-16140D01*
X66031Y-16072D01*
X66031Y-16072D01*
G37*
G36*
X65609Y-15978D02*
X65669Y-15710D01*
X65976Y-15778D01*
X65917Y-16046D01*
X65609Y-15978D01*
X65609Y-15978D01*
G37*
G36*
X65925Y-16640D02*
X65961Y-16367D01*
X66274Y-16408D01*
X66238Y-16681D01*
X65925Y-16640D01*
X65925Y-16640D01*
G37*
G36*
X65497Y-16583D02*
X65533Y-16310D01*
X65845Y-16352D01*
X65809Y-16624D01*
X65497Y-16583D01*
X65497Y-16583D01*
G37*
G54D12*
X67815Y-16751D03*
X68247Y-16751D03*
G54D13*
X71988Y-12559D03*
X71988Y-12991D03*
G54D10*
G36*
X69625Y-14550D02*
X69819Y-14744D01*
X69596Y-14967D01*
X69402Y-14773D01*
X69625Y-14550D01*
X69625Y-14550D01*
G37*
G36*
X69930Y-14244D02*
X70125Y-14439D01*
X69902Y-14662D01*
X69707Y-14467D01*
X69930Y-14244D01*
X69930Y-14244D01*
G37*
G36*
X69575Y-16386D02*
X69985Y-15976D01*
X70101Y-16093D01*
X69692Y-16502D01*
X69575Y-16386D01*
X69575Y-16386D01*
G37*
G36*
X70595Y-14291D02*
X71004Y-13882D01*
X71116Y-13993D01*
X70706Y-14403D01*
X70595Y-14291D01*
X70595Y-14291D01*
G37*
G36*
X69032Y-15843D02*
X69442Y-15433D01*
X69558Y-15550D01*
X69149Y-15959D01*
X69032Y-15843D01*
X69032Y-15843D01*
G37*
G36*
X69213Y-16024D02*
X69623Y-15614D01*
X69739Y-15731D01*
X69330Y-16140D01*
X69213Y-16024D01*
X69213Y-16024D01*
G37*
G36*
X69394Y-16205D02*
X69804Y-15795D01*
X69920Y-15912D01*
X69511Y-16321D01*
X69394Y-16205D01*
X69394Y-16205D01*
G37*
G36*
X71134Y-14827D02*
X71543Y-14418D01*
X71660Y-14535D01*
X71251Y-14944D01*
X71134Y-14827D01*
X71134Y-14827D01*
G37*
G36*
X70953Y-14646D02*
X71362Y-14237D01*
X71479Y-14354D01*
X71069Y-14763D01*
X70953Y-14646D01*
X70953Y-14646D01*
G37*
G36*
X70770Y-14467D02*
X71180Y-14057D01*
X71296Y-14174D01*
X70887Y-14583D01*
X70770Y-14467D01*
X70770Y-14467D01*
G37*
G36*
X68275Y-15746D02*
X68497Y-15968D01*
X68428Y-16038D01*
X68205Y-15815D01*
X68275Y-15746D01*
X68275Y-15746D01*
G37*
G36*
X68414Y-15607D02*
X68636Y-15829D01*
X68567Y-15899D01*
X68344Y-15676D01*
X68414Y-15607D01*
X68414Y-15607D01*
G37*
G36*
X68553Y-15467D02*
X68776Y-15690D01*
X68706Y-15760D01*
X68483Y-15537D01*
X68553Y-15467D01*
X68553Y-15467D01*
G37*
G36*
X68692Y-15328D02*
X68915Y-15551D01*
X68845Y-15620D01*
X68623Y-15398D01*
X68692Y-15328D01*
X68692Y-15328D01*
G37*
G36*
X68135Y-15885D02*
X68358Y-16108D01*
X68289Y-16177D01*
X68066Y-15955D01*
X68135Y-15885D01*
X68135Y-15885D01*
G37*
G36*
X67996Y-16024D02*
X68219Y-16247D01*
X68149Y-16316D01*
X67927Y-16094D01*
X67996Y-16024D01*
X67996Y-16024D01*
G37*
G36*
X67634Y-14827D02*
X67857Y-15050D01*
X67787Y-15119D01*
X67565Y-14897D01*
X67634Y-14827D01*
X67634Y-14827D01*
G37*
G36*
X67773Y-14688D02*
X67996Y-14911D01*
X67927Y-14980D01*
X67704Y-14757D01*
X67773Y-14688D01*
X67773Y-14688D01*
G37*
G36*
X67913Y-14549D02*
X68135Y-14771D01*
X68066Y-14841D01*
X67843Y-14618D01*
X67913Y-14549D01*
X67913Y-14549D01*
G37*
G36*
X67495Y-14966D02*
X67718Y-15189D01*
X67648Y-15259D01*
X67426Y-15036D01*
X67495Y-14966D01*
X67495Y-14966D01*
G37*
G36*
X67356Y-15105D02*
X67579Y-15328D01*
X67509Y-15398D01*
X67286Y-15175D01*
X67356Y-15105D01*
X67356Y-15105D01*
G37*
G36*
X67217Y-15245D02*
X67439Y-15467D01*
X67370Y-15537D01*
X67147Y-15314D01*
X67217Y-15245D01*
X67217Y-15245D01*
G37*
G36*
X68734Y-14799D02*
X68804Y-14869D01*
X68581Y-15092D01*
X68511Y-15022D01*
X68734Y-14799D01*
X68734Y-14799D01*
G37*
G36*
X68595Y-14660D02*
X68664Y-14730D01*
X68442Y-14952D01*
X68372Y-14883D01*
X68595Y-14660D01*
X68595Y-14660D01*
G37*
G36*
X67620Y-15913D02*
X67690Y-15982D01*
X67467Y-16205D01*
X67398Y-16136D01*
X67620Y-15913D01*
X67620Y-15913D01*
G37*
G36*
X67481Y-15774D02*
X67551Y-15843D01*
X67328Y-16066D01*
X67258Y-15996D01*
X67481Y-15774D01*
X67481Y-15774D01*
G37*
G36*
X70912Y-13108D02*
X71135Y-13331D01*
X71065Y-13400D01*
X70843Y-13178D01*
X70912Y-13108D01*
X70912Y-13108D01*
G37*
G36*
X71052Y-12969D02*
X71274Y-13191D01*
X71205Y-13261D01*
X70982Y-13038D01*
X71052Y-12969D01*
X71052Y-12969D01*
G37*
G36*
X71191Y-12830D02*
X71413Y-13052D01*
X71344Y-13122D01*
X71121Y-12899D01*
X71191Y-12830D01*
X71191Y-12830D01*
G37*
G36*
X71330Y-12690D02*
X71553Y-12913D01*
X71483Y-12983D01*
X71260Y-12760D01*
X71330Y-12690D01*
X71330Y-12690D01*
G37*
G36*
X70773Y-13247D02*
X70996Y-13470D01*
X70926Y-13539D01*
X70704Y-13317D01*
X70773Y-13247D01*
X70773Y-13247D01*
G37*
G36*
X70634Y-13386D02*
X70857Y-13609D01*
X70787Y-13679D01*
X70564Y-13456D01*
X70634Y-13386D01*
X70634Y-13386D01*
G37*
G36*
X70272Y-12189D02*
X70495Y-12412D01*
X70425Y-12482D01*
X70202Y-12259D01*
X70272Y-12189D01*
X70272Y-12189D01*
G37*
G36*
X70411Y-12050D02*
X70634Y-12273D01*
X70564Y-12342D01*
X70342Y-12120D01*
X70411Y-12050D01*
X70411Y-12050D01*
G37*
G36*
X70550Y-11911D02*
X70773Y-12134D01*
X70704Y-12203D01*
X70481Y-11980D01*
X70550Y-11911D01*
X70550Y-11911D01*
G37*
G36*
X70133Y-12328D02*
X70356Y-12551D01*
X70286Y-12621D01*
X70063Y-12398D01*
X70133Y-12328D01*
X70133Y-12328D01*
G37*
G36*
X69994Y-12468D02*
X70216Y-12690D01*
X70147Y-12760D01*
X69924Y-12537D01*
X69994Y-12468D01*
X69994Y-12468D01*
G37*
G36*
X69855Y-12607D02*
X70077Y-12830D01*
X70008Y-12899D01*
X69785Y-12676D01*
X69855Y-12607D01*
X69855Y-12607D01*
G37*
G36*
X71372Y-12161D02*
X71441Y-12231D01*
X71219Y-12454D01*
X71149Y-12384D01*
X71372Y-12161D01*
X71372Y-12161D01*
G37*
G36*
X71233Y-12022D02*
X71302Y-12092D01*
X71079Y-12315D01*
X71010Y-12245D01*
X71233Y-12022D01*
X71233Y-12022D01*
G37*
G36*
X70258Y-13275D02*
X70328Y-13345D01*
X70105Y-13567D01*
X70035Y-13498D01*
X70258Y-13275D01*
X70258Y-13275D01*
G37*
G36*
X70119Y-13136D02*
X70189Y-13205D01*
X69966Y-13428D01*
X69896Y-13359D01*
X70119Y-13136D01*
X70119Y-13136D01*
G37*
G54D14*
X70015Y-18115D02*
X70349Y-18449D01*
X73272Y-14857D02*
X73606Y-15192D01*
G54D10*
G36*
X72172Y-15400D02*
X71616Y-14844D01*
X71950Y-14509D01*
X72506Y-15066D01*
X72172Y-15400D01*
X72172Y-15400D01*
G37*
G36*
X70224Y-17349D02*
X69667Y-16792D01*
X70001Y-16458D01*
X70558Y-17015D01*
X70224Y-17349D01*
X70224Y-17349D01*
G37*
G54D15*
X72437Y-16027D03*
X71184Y-17279D03*
G54D16*
X66830Y-13011D03*
X66476Y-13513D03*
X66161Y-14064D03*
X65905Y-14616D03*
X65688Y-15206D03*
X65521Y-15807D03*
X65413Y-16437D03*
X69222Y-11003D03*
X68681Y-11318D03*
X68159Y-11683D03*
X67677Y-12086D03*
X67224Y-12539D03*
X72204Y-13877D03*
X72559Y-13385D03*
X70669Y-16614D03*
X70984Y-12559D03*
X69291Y-14448D03*
X67736Y-16594D03*
X71614Y-10255D03*
X69251Y-16771D03*
X71771Y-15944D03*
X70472Y-13937D03*
X69803Y-15157D03*
X68917Y-14311D03*
X69724Y-14015D03*
X71338Y-16338D03*
X68858Y-16653D03*
X71653Y-14094D03*
X69783Y-10728D03*
X70157Y-15649D03*
X72874Y-15511D03*
X72598Y-14133D03*
X70688Y-14704D03*
X70393Y-10511D03*
X70984Y-10354D03*
X72362Y-14586D03*
X70511Y-17539D03*
X72519Y-12992D03*
X71574Y-11929D03*
X68858Y-15078D03*
X68385Y-17795D03*
X70807Y-15275D03*
X71535Y-15078D03*
G54D17*
X67033Y-13175D02*
X67053Y-13175D01*
X66830Y-13011D02*
X67033Y-13175D01*
X66626Y-13663D02*
X66476Y-13513D01*
X66626Y-13663D02*
X66707Y-13663D01*
X66288Y-14191D02*
X66161Y-14064D01*
X66288Y-14191D02*
X66402Y-14191D01*
X66009Y-14720D02*
X65905Y-14616D01*
X66009Y-14720D02*
X66158Y-14720D01*
X65771Y-15289D02*
X65688Y-15206D01*
X65771Y-15289D02*
X65935Y-15289D01*
X65593Y-15878D02*
X65521Y-15807D01*
X65593Y-15878D02*
X65793Y-15878D01*
X65444Y-16467D02*
X65413Y-16437D01*
X65444Y-16467D02*
X65671Y-16467D01*
X69339Y-11120D02*
X69222Y-11003D01*
X69339Y-11120D02*
X69368Y-11265D01*
X68840Y-11478D02*
X68681Y-11318D01*
X68840Y-11478D02*
X68840Y-11569D01*
X68333Y-11837D02*
X68333Y-11915D01*
X68159Y-11683D02*
X68333Y-11837D01*
X67852Y-12301D02*
X67865Y-12301D01*
X67677Y-12086D02*
X67852Y-12301D01*
X67413Y-12728D02*
X67439Y-12728D01*
X67224Y-12539D02*
X67413Y-12728D01*
G54D10*
X72204Y-13740D02*
X72204Y-13877D01*
X72283Y-13661D02*
X72559Y-13385D01*
X72283Y-13661D02*
X72204Y-13740D01*
X72559Y-13385D02*
X72795Y-13149D01*
X71988Y-12559D02*
X72480Y-12559D01*
X72795Y-12874D02*
X72795Y-13149D01*
X72480Y-12559D02*
X72795Y-12874D01*
X70669Y-16614D02*
X70379Y-16904D01*
X70379Y-16904D02*
X70112Y-16904D01*
X71128Y-13115D02*
X71128Y-13097D01*
X70944Y-12598D02*
X70984Y-12559D01*
X70944Y-12913D02*
X70944Y-12598D01*
X71128Y-13097D02*
X70944Y-12913D01*
G54D18*
X70042Y-13282D02*
X70024Y-13282D01*
X69291Y-14015D02*
X69291Y-14448D01*
X70024Y-13282D02*
X69291Y-14015D01*
X69601Y-14759D02*
X69611Y-14759D01*
X69291Y-14448D02*
X69601Y-14759D01*
G54D10*
X68490Y-15753D02*
X68469Y-15753D01*
X67734Y-15590D02*
X67405Y-15920D01*
X68307Y-15590D02*
X67734Y-15590D01*
X68469Y-15753D02*
X68307Y-15590D01*
G54D18*
X67736Y-16594D02*
X67618Y-16594D01*
X67244Y-16081D02*
X67405Y-15920D01*
X67244Y-16220D02*
X67244Y-16081D01*
X67618Y-16594D02*
X67244Y-16220D01*
X70452Y-15570D02*
X70452Y-15511D01*
X69838Y-16239D02*
X69980Y-16239D01*
X69980Y-16239D02*
X70452Y-15767D01*
X70452Y-15767D02*
X70452Y-15629D01*
X70452Y-15629D02*
X70452Y-15570D01*
X70157Y-14901D02*
X70078Y-14822D01*
X70078Y-14822D02*
X69665Y-14822D01*
X69665Y-14822D02*
X69611Y-14759D01*
X70452Y-15511D02*
X70157Y-15216D01*
X70157Y-15216D02*
X70157Y-14901D01*
X67815Y-16751D02*
X67815Y-16673D01*
X67815Y-16673D02*
X67736Y-16594D01*
X69838Y-16239D02*
X69838Y-16630D01*
X69838Y-16630D02*
X70112Y-16904D01*
G54D10*
X71156Y-12168D02*
X71156Y-11084D01*
X71156Y-11084D02*
X71149Y-11077D01*
X71645Y-10553D02*
X71645Y-10286D01*
X71645Y-10286D02*
X71614Y-10255D01*
X71614Y-10255D02*
X71645Y-10286D01*
X69295Y-15704D02*
X69094Y-15905D01*
X69094Y-15905D02*
X69094Y-16377D01*
X69094Y-16377D02*
X69251Y-16535D01*
X69251Y-16535D02*
X69251Y-16771D01*
X69295Y-15696D02*
X69295Y-15704D01*
X70349Y-12335D02*
X70328Y-12335D01*
X69640Y-11648D02*
X69568Y-11648D01*
X70328Y-12335D02*
X69640Y-11648D01*
X69931Y-12753D02*
X69569Y-12753D01*
X68529Y-12992D02*
X68157Y-12619D01*
X69330Y-12992D02*
X68529Y-12992D01*
X69569Y-12753D02*
X69330Y-12992D01*
X70070Y-12614D02*
X70055Y-12614D01*
X69015Y-12677D02*
X68596Y-12257D01*
X69409Y-12677D02*
X69015Y-12677D01*
X69606Y-12480D02*
X69409Y-12677D01*
X69921Y-12480D02*
X69606Y-12480D01*
X70055Y-12614D02*
X69921Y-12480D01*
X70209Y-12475D02*
X70191Y-12475D01*
X69471Y-12332D02*
X69072Y-11934D01*
X70049Y-12332D02*
X69471Y-12332D01*
X70191Y-12475D02*
X70049Y-12332D01*
X70488Y-12196D02*
X70464Y-12196D01*
X70062Y-11795D02*
X70062Y-11400D01*
X70464Y-12196D02*
X70062Y-11795D01*
X70627Y-12057D02*
X70627Y-11241D01*
X70627Y-11241D02*
X70596Y-11209D01*
X71397Y-14681D02*
X71397Y-14704D01*
X71771Y-15708D02*
X71771Y-15944D01*
X71259Y-15196D02*
X71771Y-15708D01*
X71259Y-14842D02*
X71259Y-15196D01*
X71397Y-14704D02*
X71259Y-14842D01*
X71397Y-14681D02*
X71420Y-14681D01*
X71535Y-13243D02*
X71267Y-12976D01*
X71535Y-13503D02*
X71535Y-13243D01*
X71929Y-13897D02*
X71535Y-13503D01*
X71929Y-14251D02*
X71929Y-13897D01*
X71811Y-14370D02*
X71929Y-14251D01*
X71732Y-14370D02*
X71811Y-14370D01*
X71420Y-14681D02*
X71732Y-14370D01*
X69476Y-15877D02*
X69476Y-15916D01*
X68582Y-16401D02*
X68212Y-16031D01*
X68582Y-16771D02*
X68582Y-16401D01*
X69015Y-17204D02*
X68582Y-16771D01*
X69251Y-17204D02*
X69015Y-17204D01*
X69527Y-16929D02*
X69251Y-17204D01*
X69527Y-16535D02*
X69527Y-16929D01*
X69251Y-16259D02*
X69527Y-16535D01*
X69251Y-16141D02*
X69251Y-16259D01*
X69476Y-15916D02*
X69251Y-16141D01*
X69515Y-15877D02*
X69803Y-15590D01*
X69803Y-15590D02*
X69803Y-15157D01*
X69476Y-15877D02*
X69515Y-15877D01*
X71023Y-13567D02*
X70850Y-13393D01*
X71023Y-13622D02*
X71023Y-13567D01*
X70708Y-13937D02*
X71023Y-13622D01*
X70472Y-13937D02*
X70708Y-13937D01*
X71407Y-12837D02*
X71407Y-12569D01*
X71850Y-11130D02*
X71701Y-10981D01*
X71850Y-12125D02*
X71850Y-11130D01*
X71407Y-12569D02*
X71850Y-12125D01*
X69015Y-14409D02*
X69015Y-14566D01*
X68917Y-14311D02*
X69015Y-14409D01*
X70182Y-13421D02*
X70161Y-13421D01*
X69724Y-13858D02*
X69724Y-14015D01*
X70161Y-13421D02*
X69724Y-13858D01*
X68630Y-15614D02*
X68645Y-15614D01*
X69370Y-14921D02*
X69015Y-14566D01*
X69370Y-15314D02*
X69370Y-14921D01*
X68937Y-15748D02*
X69370Y-15314D01*
X68779Y-15748D02*
X68937Y-15748D01*
X68645Y-15614D02*
X68779Y-15748D01*
X71216Y-14500D02*
X71216Y-14531D01*
X71496Y-16181D02*
X71338Y-16338D01*
X71496Y-15669D02*
X71496Y-16181D01*
X71102Y-15275D02*
X71496Y-15669D01*
X71102Y-15118D02*
X71102Y-15275D01*
X70984Y-15000D02*
X71102Y-15118D01*
X70984Y-14763D02*
X70984Y-15000D01*
X71216Y-14531D02*
X70984Y-14763D01*
X68351Y-15892D02*
X68351Y-15910D01*
X68858Y-16417D02*
X68858Y-16653D01*
X68351Y-15910D02*
X68858Y-16417D01*
X71653Y-14094D02*
X71653Y-13918D01*
X71653Y-13918D02*
X70989Y-13254D01*
X71247Y-14500D02*
X71216Y-14500D01*
X71653Y-14094D02*
X71247Y-14500D01*
X71227Y-14500D02*
X71216Y-14500D01*
X71216Y-14500D02*
X71227Y-14500D01*
X67293Y-15391D02*
X67293Y-15658D01*
X66428Y-16524D02*
X66099Y-16524D01*
X67293Y-15658D02*
X66428Y-16524D01*
X67432Y-15252D02*
X67417Y-15252D01*
X66772Y-15971D02*
X66214Y-15971D01*
X67007Y-15736D02*
X66772Y-15971D01*
X67007Y-15275D02*
X67007Y-15736D01*
X67165Y-15118D02*
X67007Y-15275D01*
X67283Y-15118D02*
X67165Y-15118D01*
X67417Y-15252D02*
X67283Y-15118D01*
X67572Y-15112D02*
X67553Y-15112D01*
X66627Y-15419D02*
X66347Y-15419D01*
X67086Y-14960D02*
X66627Y-15419D01*
X67401Y-14960D02*
X67086Y-14960D01*
X67553Y-15112D02*
X67401Y-14960D01*
X67711Y-14973D02*
X67711Y-14955D01*
X66925Y-14885D02*
X66557Y-14885D01*
X66998Y-14812D02*
X66925Y-14885D01*
X67568Y-14812D02*
X66998Y-14812D01*
X67711Y-14955D02*
X67568Y-14812D01*
X68769Y-15474D02*
X68855Y-15474D01*
X69173Y-14960D02*
X68897Y-14685D01*
X69173Y-15157D02*
X69173Y-14960D01*
X68855Y-15474D02*
X69173Y-15157D01*
X67757Y-13545D02*
X67757Y-13019D01*
X68897Y-14685D02*
X67757Y-13545D01*
X67850Y-14834D02*
X67826Y-14834D01*
X66961Y-14566D02*
X66786Y-14391D01*
X67559Y-14566D02*
X66961Y-14566D01*
X67826Y-14834D02*
X67559Y-14566D01*
X69897Y-11001D02*
X69897Y-10842D01*
X69897Y-10842D02*
X69783Y-10728D01*
X67989Y-14695D02*
X67989Y-14682D01*
X67202Y-13895D02*
X67071Y-13895D01*
X67989Y-14682D02*
X67202Y-13895D01*
X68518Y-14806D02*
X68518Y-14561D01*
X68518Y-14561D02*
X67395Y-13438D01*
X69657Y-16058D02*
X69689Y-16058D01*
X70098Y-15649D02*
X70157Y-15649D01*
X69689Y-16058D02*
X70098Y-15649D01*
X72637Y-15275D02*
X72874Y-15511D01*
X72637Y-14173D02*
X72637Y-15275D01*
X72598Y-14133D02*
X72637Y-14173D01*
X71033Y-14320D02*
X71033Y-14359D01*
X71033Y-14359D02*
X70688Y-14704D01*
X70466Y-10797D02*
X70466Y-10584D01*
X70466Y-10584D02*
X70393Y-10511D01*
X70393Y-10511D02*
X70466Y-10584D01*
X71055Y-10655D02*
X71055Y-10425D01*
X71055Y-10425D02*
X70984Y-10354D01*
G54D18*
X72061Y-14955D02*
X72061Y-14887D01*
X72061Y-14887D02*
X72362Y-14586D01*
X71122Y-16791D02*
X71653Y-16791D01*
X70787Y-17125D02*
X71122Y-16791D01*
X70787Y-17263D02*
X70787Y-17125D01*
X70511Y-17539D02*
X70787Y-17263D01*
X71988Y-12991D02*
X72519Y-12991D01*
X72519Y-12991D02*
X72519Y-12992D01*
X70711Y-13533D02*
X70443Y-13533D01*
X70078Y-14291D02*
X69916Y-14453D01*
X70078Y-13897D02*
X70078Y-14291D01*
X70443Y-13533D02*
X70078Y-13897D01*
G54D10*
X71295Y-12308D02*
X71295Y-12287D01*
X71574Y-12007D02*
X71574Y-11929D01*
X71295Y-12287D02*
X71574Y-12007D01*
X68657Y-14945D02*
X68725Y-14945D01*
X68725Y-14945D02*
X68858Y-15078D01*
G54D18*
X68247Y-16751D02*
X68247Y-17656D01*
X68247Y-17656D02*
X68385Y-17795D01*
X68247Y-16751D02*
X68247Y-16345D01*
X68247Y-16345D02*
X68073Y-16170D01*
X72061Y-14955D02*
X72061Y-16383D01*
X72061Y-16383D02*
X71653Y-16791D01*
X70295Y-14763D02*
X70334Y-14803D01*
X70492Y-15275D02*
X70807Y-15275D01*
X70354Y-15137D02*
X70492Y-15275D01*
X70354Y-14822D02*
X70354Y-15137D01*
X70334Y-14803D02*
X70354Y-14822D01*
X72061Y-14955D02*
X71658Y-14955D01*
X70295Y-14763D02*
X69985Y-14453D01*
X69985Y-14453D02*
X69916Y-14453D01*
X71658Y-14955D02*
X71535Y-15078D01*
X69916Y-14453D02*
X70236Y-14453D01*
X70236Y-14453D02*
X70544Y-14453D01*
X70544Y-14453D02*
X70855Y-14142D01*
M02*
