G04 (created by PCBNEW (2013-jul-07)-stable) date Wed 30 Dec 2015 07:31:02 PM CST*
%MOIN*%
G04 Gerber Fmt 3.4, Leading zero omitted, Abs format*
%FSLAX34Y34*%
G01*
G70*
G90*
G04 APERTURE LIST*
%ADD10C,0.00590551*%
%ADD11R,0.0236X0.0157*%
%ADD12C,0.0590551*%
%ADD13C,0.0944882*%
%ADD14C,0.0433071*%
%ADD15C,0.0295276*%
%ADD16C,0.00984252*%
G04 APERTURE END LIST*
G54D10*
G54D11*
X72047Y-13326D03*
X72047Y-12972D03*
X68051Y-15984D03*
X68051Y-15630D03*
G54D10*
G36*
X71745Y-12236D02*
X72192Y-12013D01*
X72350Y-12330D01*
X71903Y-12553D01*
X71745Y-12236D01*
X71745Y-12236D01*
G37*
G36*
X72483Y-13716D02*
X72930Y-13493D01*
X73088Y-13810D01*
X72641Y-14033D01*
X72483Y-13716D01*
X72483Y-13716D01*
G37*
G36*
X73393Y-13702D02*
X73675Y-13561D01*
X73938Y-14090D01*
X73656Y-14230D01*
X73393Y-13702D01*
X73393Y-13702D01*
G37*
G36*
X72198Y-11306D02*
X72480Y-11165D01*
X72744Y-11694D01*
X72462Y-11834D01*
X72198Y-11306D01*
X72198Y-11306D01*
G37*
G36*
X68955Y-17307D02*
X68724Y-17750D01*
X68410Y-17587D01*
X68641Y-17143D01*
X68955Y-17307D01*
X68955Y-17307D01*
G37*
G36*
X67489Y-16543D02*
X67258Y-16987D01*
X66943Y-16823D01*
X67174Y-16380D01*
X67489Y-16543D01*
X67489Y-16543D01*
G37*
G36*
X66760Y-17089D02*
X66615Y-17369D01*
X66091Y-17096D01*
X66236Y-16817D01*
X66760Y-17089D01*
X66760Y-17089D01*
G37*
G36*
X69135Y-18326D02*
X68990Y-18605D01*
X68466Y-18332D01*
X68611Y-18053D01*
X69135Y-18326D01*
X69135Y-18326D01*
G37*
G36*
X67995Y-14460D02*
X68217Y-14237D01*
X68301Y-14321D01*
X68078Y-14543D01*
X67995Y-14460D01*
X67995Y-14460D01*
G37*
G36*
X67818Y-14283D02*
X68040Y-14060D01*
X68124Y-14144D01*
X67901Y-14367D01*
X67818Y-14283D01*
X67818Y-14283D01*
G37*
G36*
X68171Y-14637D02*
X68394Y-14414D01*
X68478Y-14498D01*
X68255Y-14720D01*
X68171Y-14637D01*
X68171Y-14637D01*
G37*
G36*
X67641Y-14106D02*
X67864Y-13884D01*
X67947Y-13967D01*
X67724Y-14190D01*
X67641Y-14106D01*
X67641Y-14106D01*
G37*
G36*
X67466Y-14989D02*
X67688Y-14766D01*
X67772Y-14850D01*
X67549Y-15072D01*
X67466Y-14989D01*
X67466Y-14989D01*
G37*
G36*
X67289Y-14812D02*
X67512Y-14589D01*
X67595Y-14673D01*
X67372Y-14896D01*
X67289Y-14812D01*
X67289Y-14812D01*
G37*
G36*
X67642Y-15166D02*
X67865Y-14943D01*
X67949Y-15026D01*
X67726Y-15249D01*
X67642Y-15166D01*
X67642Y-15166D01*
G37*
G36*
X67112Y-14635D02*
X67335Y-14413D01*
X67418Y-14496D01*
X67196Y-14719D01*
X67112Y-14635D01*
X67112Y-14635D01*
G37*
G36*
X67148Y-14031D02*
X67259Y-13919D01*
X67482Y-14142D01*
X67370Y-14253D01*
X67148Y-14031D01*
X67148Y-14031D01*
G37*
G36*
X68108Y-14991D02*
X68219Y-14880D01*
X68442Y-15102D01*
X68331Y-15214D01*
X68108Y-14991D01*
X68108Y-14991D01*
G37*
G36*
X70002Y-12452D02*
X70225Y-12229D01*
X70309Y-12313D01*
X70086Y-12536D01*
X70002Y-12452D01*
X70002Y-12452D01*
G37*
G36*
X69826Y-12275D02*
X70048Y-12053D01*
X70132Y-12136D01*
X69909Y-12359D01*
X69826Y-12275D01*
X69826Y-12275D01*
G37*
G36*
X70179Y-12629D02*
X70402Y-12406D01*
X70485Y-12490D01*
X70263Y-12712D01*
X70179Y-12629D01*
X70179Y-12629D01*
G37*
G36*
X69649Y-12099D02*
X69872Y-11876D01*
X69955Y-11959D01*
X69732Y-12182D01*
X69649Y-12099D01*
X69649Y-12099D01*
G37*
G36*
X69473Y-12981D02*
X69696Y-12758D01*
X69780Y-12842D01*
X69557Y-13065D01*
X69473Y-12981D01*
X69473Y-12981D01*
G37*
G36*
X69297Y-12804D02*
X69519Y-12582D01*
X69603Y-12665D01*
X69380Y-12888D01*
X69297Y-12804D01*
X69297Y-12804D01*
G37*
G36*
X69650Y-13158D02*
X69873Y-12935D01*
X69956Y-13019D01*
X69734Y-13241D01*
X69650Y-13158D01*
X69650Y-13158D01*
G37*
G36*
X69120Y-12627D02*
X69343Y-12405D01*
X69426Y-12488D01*
X69203Y-12711D01*
X69120Y-12627D01*
X69120Y-12627D01*
G37*
G36*
X69155Y-12023D02*
X69267Y-11911D01*
X69489Y-12134D01*
X69378Y-12245D01*
X69155Y-12023D01*
X69155Y-12023D01*
G37*
G36*
X70116Y-12983D02*
X70227Y-12872D01*
X70450Y-13094D01*
X70339Y-13206D01*
X70116Y-12983D01*
X70116Y-12983D01*
G37*
G54D11*
X71653Y-10728D03*
X71653Y-11082D03*
X71082Y-10826D03*
X71082Y-11180D03*
X70492Y-10964D03*
X70492Y-11318D03*
X69921Y-11161D03*
X69921Y-11515D03*
G54D12*
X71181Y-17952D03*
X73110Y-16023D03*
X71811Y-17322D03*
X72480Y-16653D03*
G54D13*
X70015Y-18115D02*
X70349Y-18449D01*
X73272Y-14857D02*
X73606Y-15192D01*
G54D14*
X72437Y-16027D03*
X71184Y-17279D03*
G54D15*
X66830Y-13011D03*
X66476Y-13513D03*
X66161Y-14064D03*
X65905Y-14616D03*
X65688Y-15206D03*
X65521Y-15807D03*
X65413Y-16437D03*
X69222Y-11003D03*
X68681Y-11318D03*
X68159Y-11683D03*
X67677Y-12086D03*
X67224Y-12539D03*
X72204Y-13877D03*
X72559Y-13385D03*
X70669Y-16614D03*
X70984Y-12559D03*
X69291Y-14448D03*
X67736Y-16594D03*
X71614Y-10255D03*
X69251Y-16771D03*
X71771Y-15944D03*
X70472Y-13937D03*
X69803Y-15157D03*
X68917Y-14311D03*
X69724Y-14015D03*
X71338Y-16338D03*
X68858Y-16653D03*
X71653Y-14094D03*
X69783Y-10728D03*
X70157Y-15649D03*
X72874Y-15511D03*
X72598Y-14133D03*
X70688Y-14704D03*
X70393Y-10511D03*
X70984Y-10354D03*
X72362Y-14586D03*
X70511Y-17539D03*
X72519Y-12992D03*
X71574Y-11929D03*
X68858Y-15078D03*
X68385Y-17795D03*
X70807Y-15275D03*
X71535Y-15078D03*
G54D10*
X71653Y-11082D02*
X71653Y-11238D01*
X71653Y-11238D02*
X70332Y-12559D01*
X68148Y-14390D02*
X68148Y-14390D01*
X67381Y-13011D02*
X66830Y-13011D01*
X68248Y-13877D02*
X67381Y-13011D01*
X68248Y-14291D02*
X68248Y-13877D01*
X68148Y-14390D02*
X68248Y-14291D01*
X67971Y-14214D02*
X67971Y-14213D01*
X66584Y-13622D02*
X66476Y-13513D01*
X67775Y-13622D02*
X66584Y-13622D01*
X68070Y-13917D02*
X67775Y-13622D01*
X68070Y-14114D02*
X68070Y-13917D01*
X67971Y-14213D02*
X68070Y-14114D01*
X67794Y-14037D02*
X67560Y-14037D01*
X66938Y-14064D02*
X66161Y-14064D01*
X67204Y-13799D02*
X66938Y-14064D01*
X67322Y-13799D02*
X67204Y-13799D01*
X67560Y-14037D02*
X67322Y-13799D01*
X67265Y-14566D02*
X67264Y-14566D01*
X67214Y-14616D02*
X65905Y-14616D01*
X67264Y-14566D02*
X67214Y-14616D01*
X67442Y-14743D02*
X67442Y-14743D01*
X66978Y-15206D02*
X65688Y-15206D01*
X67442Y-14743D02*
X66978Y-15206D01*
X67619Y-14919D02*
X67619Y-14920D01*
X66732Y-15807D02*
X65521Y-15807D01*
X67619Y-14920D02*
X66732Y-15807D01*
X67795Y-15096D02*
X67795Y-15117D01*
X66476Y-16437D02*
X65413Y-16437D01*
X67795Y-15117D02*
X66476Y-16437D01*
X71082Y-11180D02*
X71082Y-11456D01*
X71082Y-11456D02*
X70156Y-12382D01*
X70492Y-11318D02*
X70492Y-11693D01*
X70492Y-11693D02*
X69979Y-12206D01*
X69921Y-11515D02*
X69921Y-11910D01*
X69921Y-11910D02*
X69802Y-12029D01*
X69273Y-12558D02*
X69273Y-12324D01*
X69222Y-11781D02*
X69222Y-11003D01*
X69035Y-11968D02*
X69222Y-11781D01*
X69035Y-12086D02*
X69035Y-11968D01*
X69273Y-12324D02*
X69035Y-12086D01*
X69450Y-12735D02*
X69449Y-12735D01*
X68887Y-11525D02*
X68681Y-11318D01*
X68887Y-12568D02*
X68887Y-11525D01*
X69153Y-12834D02*
X68887Y-12568D01*
X69350Y-12834D02*
X69153Y-12834D01*
X69449Y-12735D02*
X69350Y-12834D01*
X69627Y-12911D02*
X69627Y-12912D01*
X68740Y-12263D02*
X68159Y-11683D01*
X68740Y-12637D02*
X68740Y-12263D01*
X69114Y-13011D02*
X68740Y-12637D01*
X69527Y-13011D02*
X69114Y-13011D01*
X69627Y-12912D02*
X69527Y-13011D01*
X69803Y-13088D02*
X69803Y-13089D01*
X67980Y-12086D02*
X67677Y-12086D01*
X69082Y-13188D02*
X67980Y-12086D01*
X69704Y-13188D02*
X69082Y-13188D01*
X69803Y-13089D02*
X69704Y-13188D01*
X68324Y-14567D02*
X68345Y-14567D01*
X67224Y-12637D02*
X67224Y-12539D01*
X68444Y-13858D02*
X67224Y-12637D01*
X68444Y-14468D02*
X68444Y-13858D01*
X68345Y-14567D02*
X68444Y-14468D01*
X72007Y-14448D02*
X72007Y-14074D01*
X72007Y-14448D02*
X72007Y-15275D01*
X72007Y-14074D02*
X72204Y-13877D01*
G54D16*
X69291Y-14448D02*
X69094Y-14645D01*
X68582Y-14744D02*
X68582Y-14763D01*
X68602Y-14744D02*
X68582Y-14744D01*
X68996Y-14744D02*
X68602Y-14744D01*
X69094Y-14645D02*
X68996Y-14744D01*
G54D10*
X72106Y-12972D02*
X72047Y-12972D01*
X72559Y-13385D02*
X72480Y-13307D01*
X72480Y-13307D02*
X72440Y-13307D01*
X72440Y-13307D02*
X72106Y-12972D01*
X72007Y-15275D02*
X70669Y-16614D01*
G54D16*
X70984Y-12559D02*
X71633Y-12559D01*
X71633Y-12559D02*
X72047Y-12972D01*
G54D10*
X70826Y-12401D02*
X70826Y-12362D01*
X70807Y-12381D02*
X70826Y-12401D01*
X70984Y-12559D02*
X70807Y-12381D01*
G54D16*
X68275Y-15047D02*
X68299Y-15047D01*
X68299Y-15047D02*
X68582Y-14763D01*
X70283Y-13039D02*
X70283Y-12905D01*
X70283Y-12905D02*
X70610Y-12578D01*
X70610Y-12578D02*
X70826Y-12362D01*
X67716Y-15630D02*
X68051Y-15630D01*
X66791Y-16555D02*
X67716Y-15630D01*
X66791Y-16889D02*
X66791Y-16555D01*
X67027Y-17125D02*
X66791Y-16889D01*
X67322Y-17125D02*
X67027Y-17125D01*
X67539Y-16909D02*
X67322Y-17125D01*
X67539Y-16791D02*
X67539Y-16909D01*
X67736Y-16594D02*
X67539Y-16791D01*
G54D10*
X68051Y-15275D02*
X68051Y-15630D01*
G54D16*
X68275Y-15051D02*
X68275Y-15047D01*
X68051Y-15275D02*
X68275Y-15051D01*
X67315Y-14086D02*
X68275Y-15047D01*
X69322Y-12078D02*
X70283Y-13039D01*
G54D10*
X71653Y-10728D02*
X71653Y-10295D01*
X71653Y-10295D02*
X71614Y-10255D01*
X71653Y-10295D02*
X71614Y-10255D01*
X69960Y-16771D02*
X70137Y-16771D01*
X70787Y-17559D02*
X71181Y-17952D01*
X70787Y-17421D02*
X70787Y-17559D01*
X70137Y-16771D02*
X70787Y-17421D01*
X69251Y-16771D02*
X69960Y-16771D01*
X71771Y-15944D02*
X72480Y-16653D01*
X69803Y-15157D02*
X70472Y-14488D01*
X70472Y-14488D02*
X70472Y-13937D01*
X69507Y-14015D02*
X69330Y-14015D01*
X69035Y-14311D02*
X68917Y-14311D01*
X69330Y-14015D02*
X69035Y-14311D01*
X69507Y-14015D02*
X69724Y-14015D01*
X71653Y-14094D02*
X71653Y-14744D01*
X71653Y-14744D02*
X71811Y-14901D01*
X71811Y-16811D02*
X71811Y-17322D01*
X71338Y-16338D02*
X71811Y-16811D01*
X68897Y-16299D02*
X69055Y-16141D01*
X69055Y-16141D02*
X70866Y-16141D01*
X70866Y-16141D02*
X71811Y-15196D01*
X71811Y-15196D02*
X71811Y-14901D01*
X68858Y-16653D02*
X68897Y-16614D01*
X68897Y-16614D02*
X68897Y-16299D01*
X69783Y-10728D02*
X69783Y-11023D01*
X69783Y-11023D02*
X69921Y-11161D01*
X68051Y-15984D02*
X69823Y-15984D01*
X69823Y-15984D02*
X70157Y-15649D01*
X68051Y-15984D02*
X67915Y-15984D01*
X67915Y-15984D02*
X67216Y-16683D01*
X72785Y-13763D02*
X72785Y-13946D01*
X73110Y-15748D02*
X73110Y-16023D01*
X72874Y-15511D02*
X73110Y-15748D01*
X72785Y-13946D02*
X72598Y-14133D01*
X71358Y-14035D02*
X71358Y-13759D01*
X71791Y-13326D02*
X72047Y-13326D01*
X71358Y-13759D02*
X71791Y-13326D01*
X70688Y-14704D02*
X71358Y-14035D01*
X72785Y-13763D02*
X72483Y-13763D01*
X72483Y-13763D02*
X72047Y-13326D01*
X70393Y-10511D02*
X70393Y-10866D01*
X70393Y-10866D02*
X70492Y-10964D01*
X71082Y-10826D02*
X71082Y-10452D01*
X71082Y-10452D02*
X70984Y-10354D01*
G54D16*
X72362Y-14586D02*
X72559Y-14586D01*
X72559Y-14586D02*
X73248Y-13897D01*
X72500Y-12992D02*
X72814Y-12992D01*
X73248Y-13425D02*
X73248Y-13897D01*
X72814Y-12992D02*
X73248Y-13425D01*
X69960Y-17106D02*
X70078Y-17106D01*
X70078Y-17106D02*
X70511Y-17539D01*
X72500Y-12972D02*
X72500Y-12992D01*
X72519Y-12992D02*
X72500Y-12972D01*
G54D10*
X71929Y-12283D02*
X72048Y-12283D01*
X71574Y-11929D02*
X71929Y-12283D01*
X68858Y-15078D02*
X69488Y-15708D01*
X70118Y-15275D02*
X70807Y-15275D01*
X69685Y-15708D02*
X70118Y-15275D01*
X69488Y-15708D02*
X69685Y-15708D01*
G54D16*
X68683Y-17497D02*
X68683Y-17447D01*
X68385Y-17795D02*
X68683Y-17497D01*
X69724Y-17106D02*
X69023Y-17106D01*
X69023Y-17106D02*
X68683Y-17447D01*
X69960Y-17106D02*
X69724Y-17106D01*
X69724Y-17106D02*
X69685Y-17106D01*
X71535Y-15078D02*
X71240Y-15374D01*
X70905Y-15374D02*
X70807Y-15275D01*
X71240Y-15374D02*
X70905Y-15374D01*
G54D10*
X72480Y-12972D02*
X72480Y-12715D01*
G54D16*
X72480Y-12972D02*
X72500Y-12992D01*
G54D10*
X72480Y-12715D02*
X72048Y-12283D01*
M02*
