G04 (created by PCBNEW (2013-jul-07)-stable) date Tue 08 Dec 2015 07:39:13 AM CST*
%MOIN*%
G04 Gerber Fmt 3.4, Leading zero omitted, Abs format*
%FSLAX34Y34*%
G01*
G70*
G90*
G04 APERTURE LIST*
%ADD10C,0.00590551*%
%ADD11C,0.00787402*%
%ADD12C,0.00511811*%
%ADD13C,0.00393701*%
%ADD14C,0.005*%
%ADD15C,0.0012*%
G04 APERTURE END LIST*
G54D10*
G54D11*
X67716Y-17913D02*
X68307Y-17913D01*
X67716Y-17913D02*
X67716Y-17322D01*
X73228Y-12795D02*
X73228Y-13385D01*
X73228Y-12795D02*
X72637Y-12795D01*
X72440Y-13188D02*
X72834Y-13582D01*
X72834Y-13188D02*
X72440Y-13582D01*
X68110Y-17519D02*
X68503Y-17125D01*
G54D12*
X71633Y-11270D02*
X71734Y-11534D01*
X71760Y-11332D01*
X71838Y-11521D01*
X71867Y-11239D01*
X71213Y-11620D02*
X71153Y-11351D01*
X71256Y-11328D01*
X71284Y-11335D01*
X71300Y-11345D01*
X71318Y-11368D01*
X71327Y-11407D01*
X71320Y-11435D01*
X71310Y-11451D01*
X71287Y-11469D01*
X71185Y-11492D01*
X67007Y-14534D02*
X67031Y-14487D01*
X67055Y-14470D01*
X67091Y-14459D01*
X67143Y-14471D01*
X67225Y-14514D01*
X67265Y-14550D01*
X67276Y-14585D01*
X67276Y-14614D01*
X67252Y-14661D01*
X67228Y-14678D01*
X67193Y-14689D01*
X67140Y-14677D01*
X67058Y-14634D01*
X67018Y-14598D01*
X67007Y-14563D01*
X67007Y-14534D01*
X70737Y-11596D02*
X70778Y-11597D01*
X70795Y-11605D01*
X70815Y-11626D01*
X70827Y-11664D01*
X70822Y-11693D01*
X70814Y-11709D01*
X70793Y-11730D01*
X70693Y-11761D01*
X70610Y-11499D01*
X70697Y-11471D01*
X70726Y-11476D01*
X70743Y-11484D01*
X70763Y-11505D01*
X70771Y-11530D01*
X70766Y-11559D01*
X70758Y-11576D01*
X70737Y-11596D01*
X70649Y-11624D01*
X70126Y-11820D02*
X70168Y-11817D01*
X70185Y-11825D01*
X70207Y-11844D01*
X70222Y-11880D01*
X70220Y-11909D01*
X70213Y-11927D01*
X70194Y-11949D01*
X70097Y-11989D01*
X69991Y-11734D01*
X70076Y-11699D01*
X70105Y-11701D01*
X70122Y-11708D01*
X70145Y-11728D01*
X70155Y-11752D01*
X70152Y-11781D01*
X70145Y-11798D01*
X70126Y-11820D01*
X70041Y-11856D01*
X70390Y-11669D02*
X70475Y-11875D01*
X70473Y-11904D01*
X70466Y-11921D01*
X70447Y-11943D01*
X70411Y-11958D01*
X70381Y-11956D01*
X70455Y-11826D02*
X70436Y-11848D01*
X70388Y-11868D01*
X70358Y-11866D01*
X70341Y-11859D01*
X70319Y-11840D01*
X70289Y-11767D01*
X70291Y-11738D01*
X70298Y-11721D01*
X70317Y-11699D01*
X70366Y-11679D01*
X70395Y-11681D01*
X69738Y-11880D02*
X69709Y-11880D01*
X69674Y-11898D01*
X69645Y-11928D01*
X69634Y-11963D01*
X69634Y-11993D01*
X69647Y-12045D01*
X69665Y-12080D01*
X69701Y-12121D01*
X69725Y-12138D01*
X69760Y-12149D01*
X69801Y-12143D01*
X69824Y-12131D01*
X69853Y-12101D01*
X69859Y-12083D01*
X69816Y-12002D01*
X69770Y-12026D01*
X69251Y-12156D02*
X69222Y-12159D01*
X69189Y-12180D01*
X69162Y-12213D01*
X69154Y-12249D01*
X69157Y-12278D01*
X69175Y-12329D01*
X69196Y-12363D01*
X69235Y-12400D01*
X69260Y-12415D01*
X69296Y-12423D01*
X69337Y-12413D01*
X69359Y-12399D01*
X69385Y-12367D01*
X69389Y-12348D01*
X69340Y-12271D01*
X69295Y-12299D01*
X68747Y-12678D02*
X68827Y-12782D01*
X68586Y-12619D02*
X68747Y-12678D01*
X68732Y-12507D01*
X68954Y-12452D02*
X69090Y-12629D01*
X69096Y-12658D01*
X69093Y-12677D01*
X69081Y-12703D01*
X69049Y-12727D01*
X69020Y-12733D01*
X69058Y-12588D02*
X69045Y-12614D01*
X69004Y-12646D01*
X68975Y-12652D01*
X68957Y-12649D01*
X68930Y-12637D01*
X68882Y-12574D01*
X68877Y-12545D01*
X68879Y-12527D01*
X68892Y-12500D01*
X68934Y-12468D01*
X68962Y-12463D01*
X68339Y-13022D02*
X68428Y-13119D01*
X68174Y-12978D02*
X68339Y-13022D01*
X68309Y-12853D01*
X68526Y-12779D02*
X68677Y-12944D01*
X68685Y-12972D01*
X68684Y-12991D01*
X68674Y-13018D01*
X68645Y-13045D01*
X68616Y-13053D01*
X68641Y-12905D02*
X68631Y-12933D01*
X68592Y-12968D01*
X68564Y-12976D01*
X68546Y-12975D01*
X68518Y-12965D01*
X68465Y-12907D01*
X68457Y-12878D01*
X68458Y-12860D01*
X68468Y-12833D01*
X68507Y-12797D01*
X68535Y-12789D01*
X68056Y-13313D02*
X68153Y-13402D01*
X67887Y-13283D02*
X68056Y-13313D01*
X68011Y-13148D01*
X67720Y-13708D02*
X67824Y-13788D01*
X67550Y-13693D02*
X67720Y-13708D01*
X67662Y-13547D01*
X67424Y-14123D02*
X67535Y-14193D01*
X67253Y-14123D02*
X67424Y-14123D01*
X67351Y-13968D01*
X67056Y-15118D02*
X66900Y-15153D01*
X66996Y-15263D02*
X66741Y-15158D01*
X66781Y-15061D01*
X66803Y-15042D01*
X66821Y-15035D01*
X66850Y-15033D01*
X66886Y-15048D01*
X66905Y-15070D01*
X66913Y-15087D01*
X66915Y-15116D01*
X66874Y-15213D01*
X67116Y-14972D02*
X67094Y-14992D01*
X67077Y-14999D01*
X67048Y-15001D01*
X66975Y-14971D01*
X66956Y-14949D01*
X66949Y-14931D01*
X66947Y-14902D01*
X66962Y-14866D01*
X66984Y-14847D01*
X67001Y-14839D01*
X67030Y-14837D01*
X67103Y-14867D01*
X67122Y-14890D01*
X67129Y-14907D01*
X67131Y-14936D01*
X67116Y-14972D01*
X66903Y-15483D02*
X66750Y-15531D01*
X66856Y-15633D02*
X66593Y-15551D01*
X66625Y-15450D01*
X66645Y-15429D01*
X66661Y-15421D01*
X66690Y-15416D01*
X66728Y-15428D01*
X66749Y-15448D01*
X66758Y-15465D01*
X66762Y-15494D01*
X66731Y-15594D01*
X66761Y-16003D02*
X66613Y-16065D01*
X66727Y-16157D02*
X66458Y-16097D01*
X66480Y-15995D01*
X66499Y-15972D01*
X66514Y-15962D01*
X66543Y-15955D01*
X66581Y-15964D01*
X66604Y-15982D01*
X66614Y-15998D01*
X66621Y-16026D01*
X66599Y-16129D01*
X66657Y-16504D02*
X66515Y-16578D01*
X66636Y-16660D02*
X66363Y-16624D01*
X66377Y-16520D01*
X66393Y-16496D01*
X66408Y-16485D01*
X66435Y-16475D01*
X66475Y-16480D01*
X66499Y-16497D01*
X66510Y-16511D01*
X66520Y-16539D01*
X66506Y-16643D01*
X67673Y-14445D02*
X67710Y-14427D01*
X67728Y-14427D01*
X67756Y-14436D01*
X67784Y-14464D01*
X67793Y-14492D01*
X67793Y-14510D01*
X67784Y-14538D01*
X67710Y-14612D01*
X67515Y-14417D01*
X67580Y-14353D01*
X67608Y-14343D01*
X67626Y-14343D01*
X67654Y-14353D01*
X67673Y-14371D01*
X67682Y-14399D01*
X67682Y-14417D01*
X67673Y-14445D01*
X67608Y-14510D01*
X67932Y-14390D02*
X67905Y-14399D01*
X67877Y-14390D01*
X67710Y-14223D01*
X68007Y-14315D02*
X67877Y-14185D01*
X67812Y-14121D02*
X67812Y-14139D01*
X67830Y-14139D01*
X67830Y-14121D01*
X67812Y-14121D01*
X67830Y-14139D01*
X67970Y-14093D02*
X68100Y-14223D01*
X67988Y-14111D02*
X67988Y-14093D01*
X67997Y-14065D01*
X68025Y-14037D01*
X68053Y-14028D01*
X68081Y-14037D01*
X68183Y-14139D01*
X68276Y-14046D02*
X68081Y-13851D01*
X68220Y-13953D02*
X68350Y-13972D01*
X68220Y-13842D02*
X68220Y-13991D01*
X68276Y-13786D02*
X68350Y-13712D01*
X68239Y-13694D02*
X68406Y-13861D01*
X68434Y-13870D01*
X68461Y-13861D01*
X68480Y-13842D01*
X68545Y-13777D02*
X68415Y-13647D01*
X68452Y-13684D02*
X68443Y-13657D01*
X68443Y-13638D01*
X68452Y-13610D01*
X68471Y-13592D01*
X68693Y-13629D02*
X68666Y-13638D01*
X68647Y-13638D01*
X68619Y-13629D01*
X68563Y-13573D01*
X68554Y-13545D01*
X68554Y-13527D01*
X68563Y-13499D01*
X68591Y-13471D01*
X68619Y-13462D01*
X68638Y-13462D01*
X68666Y-13471D01*
X68721Y-13527D01*
X68731Y-13554D01*
X68731Y-13573D01*
X68721Y-13601D01*
X68693Y-13629D01*
X68712Y-13350D02*
X68842Y-13480D01*
X68731Y-13369D02*
X68731Y-13350D01*
X68740Y-13322D01*
X68768Y-13295D01*
X68795Y-13285D01*
X68823Y-13295D01*
X68925Y-13397D01*
X69018Y-13304D02*
X68888Y-13174D01*
X68823Y-13109D02*
X68823Y-13128D01*
X68842Y-13128D01*
X68842Y-13109D01*
X68823Y-13109D01*
X68842Y-13128D01*
X69185Y-13118D02*
X69176Y-13146D01*
X69139Y-13183D01*
X69111Y-13193D01*
X69092Y-13193D01*
X69065Y-13183D01*
X69009Y-13128D01*
X69000Y-13100D01*
X69000Y-13081D01*
X69009Y-13053D01*
X69046Y-13016D01*
X69074Y-13007D01*
X69362Y-12961D02*
X69259Y-12859D01*
X69232Y-12849D01*
X69204Y-12859D01*
X69167Y-12896D01*
X69157Y-12923D01*
X69352Y-12951D02*
X69343Y-12979D01*
X69297Y-13026D01*
X69269Y-13035D01*
X69241Y-13026D01*
X69222Y-13007D01*
X69213Y-12979D01*
X69222Y-12951D01*
X69269Y-12905D01*
X69278Y-12877D01*
X69297Y-12766D02*
X69371Y-12691D01*
X69259Y-12673D02*
X69426Y-12840D01*
X69454Y-12849D01*
X69482Y-12840D01*
X69501Y-12821D01*
X69594Y-12729D02*
X69566Y-12738D01*
X69547Y-12738D01*
X69519Y-12729D01*
X69464Y-12673D01*
X69454Y-12645D01*
X69454Y-12627D01*
X69464Y-12599D01*
X69491Y-12571D01*
X69519Y-12562D01*
X69538Y-12562D01*
X69566Y-12571D01*
X69621Y-12627D01*
X69631Y-12654D01*
X69631Y-12673D01*
X69621Y-12701D01*
X69594Y-12729D01*
X69742Y-12580D02*
X69612Y-12450D01*
X69649Y-12487D02*
X69640Y-12459D01*
X69640Y-12441D01*
X69649Y-12413D01*
X69668Y-12395D01*
G54D13*
X71880Y-11137D02*
X71870Y-11059D01*
X71568Y-11178D02*
X71558Y-11100D01*
X71849Y-10903D02*
X71808Y-10591D01*
X71496Y-10632D02*
X71537Y-10944D01*
X71880Y-11137D02*
X71568Y-11178D01*
X71341Y-11216D02*
X71324Y-11139D01*
X71033Y-11284D02*
X71016Y-11207D01*
X71290Y-10985D02*
X71222Y-10678D01*
X70914Y-10746D02*
X70982Y-11053D01*
X71341Y-11216D02*
X71033Y-11284D01*
X70800Y-11332D02*
X70776Y-11256D01*
X70499Y-11426D02*
X70476Y-11351D01*
X70729Y-11106D02*
X70634Y-10806D01*
X70333Y-10901D02*
X70428Y-11201D01*
X70800Y-11332D02*
X70499Y-11426D01*
X70276Y-11504D02*
X70246Y-11431D01*
X69985Y-11624D02*
X69955Y-11552D01*
X70186Y-11286D02*
X70065Y-10995D01*
X69774Y-11115D02*
X69895Y-11406D01*
X70276Y-11504D02*
X69985Y-11624D01*
X69789Y-11733D02*
X69753Y-11663D01*
X69510Y-11878D02*
X69474Y-11808D01*
X69680Y-11523D02*
X69535Y-11244D01*
X69256Y-11389D02*
X69401Y-11669D01*
X69789Y-11733D02*
X69510Y-11878D01*
X69301Y-11999D02*
X69258Y-11932D01*
X69035Y-12168D02*
X68993Y-12102D01*
X69174Y-11800D02*
X69004Y-11534D01*
X68739Y-11703D02*
X68908Y-11969D01*
X69301Y-11999D02*
X69035Y-12168D01*
X68829Y-12303D02*
X68781Y-12240D01*
X68579Y-12494D02*
X68531Y-12432D01*
X68685Y-12115D02*
X68493Y-11865D01*
X68243Y-12057D02*
X68435Y-12307D01*
X68829Y-12303D02*
X68579Y-12494D01*
X68393Y-12644D02*
X68340Y-12586D01*
X68161Y-12857D02*
X68108Y-12799D01*
X68234Y-12470D02*
X68021Y-12238D01*
X67789Y-12450D02*
X68002Y-12683D01*
X68393Y-12644D02*
X68161Y-12857D01*
X67995Y-13023D02*
X67937Y-12970D01*
X67782Y-13256D02*
X67724Y-13202D01*
X67820Y-12864D02*
X67588Y-12651D01*
X67375Y-12883D02*
X67608Y-13096D01*
X67995Y-13023D02*
X67782Y-13256D01*
X67632Y-13421D02*
X67570Y-13373D01*
X67440Y-13671D02*
X67378Y-13623D01*
X67445Y-13278D02*
X67195Y-13086D01*
X67003Y-13336D02*
X67253Y-13527D01*
X67632Y-13421D02*
X67440Y-13671D01*
X67306Y-13858D02*
X67240Y-13815D01*
X67137Y-14123D02*
X67070Y-14081D01*
X67107Y-13731D02*
X66841Y-13562D01*
X66672Y-13827D02*
X66937Y-13996D01*
X67306Y-13858D02*
X67137Y-14123D01*
X67016Y-14333D02*
X66946Y-14297D01*
X66870Y-14612D02*
X66801Y-14576D01*
X66806Y-14224D02*
X66527Y-14078D01*
X66382Y-14358D02*
X66661Y-14503D01*
X67016Y-14333D02*
X66870Y-14612D01*
X66782Y-14808D02*
X66709Y-14778D01*
X66661Y-15099D02*
X66588Y-15069D01*
X66564Y-14717D02*
X66273Y-14597D01*
X66152Y-14888D02*
X66443Y-15008D01*
X66782Y-14808D02*
X66661Y-15099D01*
X66564Y-15322D02*
X66489Y-15298D01*
X66469Y-15622D02*
X66394Y-15599D01*
X66339Y-15251D02*
X66038Y-15156D01*
X65944Y-15457D02*
X66244Y-15551D01*
X66564Y-15322D02*
X66469Y-15622D01*
X66422Y-15856D02*
X66345Y-15839D01*
X66354Y-16164D02*
X66277Y-16147D01*
X66191Y-15805D02*
X65884Y-15737D01*
X65816Y-16044D02*
X66123Y-16113D01*
X66422Y-15856D02*
X66354Y-16164D01*
X66296Y-16391D02*
X66218Y-16381D01*
X66255Y-16703D02*
X66177Y-16693D01*
X66062Y-16360D02*
X65750Y-16319D01*
X65709Y-16631D02*
X66021Y-16672D01*
X66296Y-16391D02*
X66255Y-16703D01*
G54D14*
X67901Y-16861D02*
X67901Y-16641D01*
X68161Y-16861D02*
X68161Y-16641D01*
X68241Y-16861D02*
X68241Y-16641D01*
X68241Y-16641D02*
X67821Y-16641D01*
X67821Y-16641D02*
X67821Y-16861D01*
X67821Y-16861D02*
X68241Y-16861D01*
X71878Y-12645D02*
X72098Y-12645D01*
X71878Y-12905D02*
X72098Y-12905D01*
X71878Y-12985D02*
X72098Y-12985D01*
X72098Y-12985D02*
X72098Y-12565D01*
X72098Y-12565D02*
X71878Y-12565D01*
X71878Y-12565D02*
X71878Y-12985D01*
X69749Y-14776D02*
X69594Y-14620D01*
X69933Y-14592D02*
X69777Y-14436D01*
X69990Y-14535D02*
X69834Y-14380D01*
X69834Y-14380D02*
X69537Y-14677D01*
X69537Y-14677D02*
X69693Y-14832D01*
X69693Y-14832D02*
X69990Y-14535D01*
G54D10*
X67874Y-16141D02*
X67559Y-15826D01*
X67559Y-16141D02*
X68503Y-16141D01*
X68503Y-16141D02*
X68503Y-14724D01*
X68503Y-14724D02*
X67559Y-14724D01*
X67559Y-14724D02*
X67559Y-16141D01*
X69960Y-12637D02*
X70275Y-12322D01*
X69960Y-12322D02*
X69960Y-13267D01*
X69960Y-13267D02*
X71377Y-13267D01*
X71377Y-13267D02*
X71377Y-12322D01*
X71377Y-12322D02*
X69960Y-12322D01*
X71348Y-14910D02*
X70625Y-14187D01*
X70625Y-14187D02*
X69344Y-15467D01*
X69344Y-15467D02*
X70068Y-16191D01*
X71348Y-14910D02*
X70068Y-16191D01*
G54D14*
X69865Y-15445D02*
G75*
G03X69865Y-15445I-111J0D01*
G74*
G01*
G54D10*
X74233Y-15734D02*
X70892Y-19075D01*
G54D15*
X71831Y-10702D02*
X71891Y-10694D01*
X71893Y-10708D01*
X71891Y-10717D01*
X71886Y-10723D01*
X71881Y-10727D01*
X71870Y-10731D01*
X71861Y-10732D01*
X71850Y-10731D01*
X71843Y-10729D01*
X71837Y-10724D01*
X71833Y-10716D01*
X71831Y-10702D01*
X71843Y-10792D02*
X71839Y-10758D01*
X71841Y-10775D02*
X71900Y-10767D01*
X71891Y-10763D01*
X71885Y-10758D01*
X71881Y-10753D01*
X71254Y-10787D02*
X71313Y-10774D01*
X71316Y-10787D01*
X71315Y-10796D01*
X71310Y-10803D01*
X71305Y-10807D01*
X71295Y-10813D01*
X71287Y-10814D01*
X71275Y-10814D01*
X71269Y-10813D01*
X71262Y-10808D01*
X71257Y-10800D01*
X71254Y-10787D01*
X71319Y-10831D02*
X71323Y-10833D01*
X71327Y-10838D01*
X71330Y-10852D01*
X71328Y-10858D01*
X71326Y-10861D01*
X71321Y-10865D01*
X71316Y-10867D01*
X71307Y-10866D01*
X71266Y-10840D01*
X71274Y-10876D01*
X70676Y-10911D02*
X70733Y-10893D01*
X70737Y-10907D01*
X70737Y-10916D01*
X70733Y-10923D01*
X70729Y-10928D01*
X70719Y-10934D01*
X70711Y-10936D01*
X70699Y-10937D01*
X70692Y-10936D01*
X70685Y-10932D01*
X70680Y-10925D01*
X70676Y-10911D01*
X70749Y-10945D02*
X70760Y-10981D01*
X70733Y-10968D01*
X70735Y-10976D01*
X70734Y-10983D01*
X70732Y-10986D01*
X70728Y-10991D01*
X70714Y-10995D01*
X70708Y-10994D01*
X70704Y-10992D01*
X70700Y-10988D01*
X70695Y-10971D01*
X70696Y-10965D01*
X70697Y-10961D01*
X70116Y-11096D02*
X70171Y-11073D01*
X70177Y-11086D01*
X70178Y-11095D01*
X70174Y-11103D01*
X70170Y-11107D01*
X70161Y-11115D01*
X70153Y-11118D01*
X70141Y-11120D01*
X70135Y-11119D01*
X70127Y-11116D01*
X70121Y-11109D01*
X70116Y-11096D01*
X70186Y-11160D02*
X70149Y-11175D01*
X70201Y-11138D02*
X70156Y-11141D01*
X70171Y-11175D01*
X69595Y-11340D02*
X69648Y-11313D01*
X69654Y-11325D01*
X69656Y-11334D01*
X69653Y-11342D01*
X69650Y-11347D01*
X69641Y-11355D01*
X69633Y-11359D01*
X69622Y-11362D01*
X69615Y-11362D01*
X69608Y-11359D01*
X69601Y-11353D01*
X69595Y-11340D01*
X69689Y-11391D02*
X69675Y-11366D01*
X69649Y-11377D01*
X69653Y-11378D01*
X69658Y-11382D01*
X69664Y-11394D01*
X69665Y-11401D01*
X69663Y-11404D01*
X69660Y-11410D01*
X69647Y-11416D01*
X69641Y-11416D01*
X69637Y-11415D01*
X69631Y-11411D01*
X69625Y-11399D01*
X69625Y-11392D01*
X69626Y-11388D01*
X69072Y-11625D02*
X69123Y-11593D01*
X69130Y-11605D01*
X69133Y-11614D01*
X69131Y-11622D01*
X69128Y-11627D01*
X69119Y-11636D01*
X69112Y-11640D01*
X69101Y-11644D01*
X69095Y-11645D01*
X69087Y-11643D01*
X69080Y-11637D01*
X69072Y-11625D01*
X69169Y-11665D02*
X69163Y-11655D01*
X69157Y-11652D01*
X69153Y-11651D01*
X69143Y-11651D01*
X69132Y-11655D01*
X69113Y-11667D01*
X69109Y-11673D01*
X69108Y-11677D01*
X69109Y-11683D01*
X69115Y-11693D01*
X69121Y-11696D01*
X69125Y-11697D01*
X69131Y-11696D01*
X69143Y-11688D01*
X69146Y-11683D01*
X69147Y-11679D01*
X69146Y-11673D01*
X69140Y-11663D01*
X69135Y-11660D01*
X69131Y-11659D01*
X69125Y-11659D01*
X68569Y-11950D02*
X68616Y-11914D01*
X68625Y-11925D01*
X68628Y-11933D01*
X68627Y-11941D01*
X68624Y-11947D01*
X68617Y-11956D01*
X68610Y-11962D01*
X68599Y-11966D01*
X68593Y-11968D01*
X68585Y-11966D01*
X68577Y-11961D01*
X68569Y-11950D01*
X68649Y-11957D02*
X68674Y-11988D01*
X68610Y-12005D01*
X68104Y-12316D02*
X68148Y-12275D01*
X68157Y-12286D01*
X68161Y-12294D01*
X68161Y-12302D01*
X68159Y-12308D01*
X68152Y-12318D01*
X68146Y-12323D01*
X68135Y-12329D01*
X68129Y-12331D01*
X68121Y-12330D01*
X68113Y-12326D01*
X68104Y-12316D01*
X68175Y-12343D02*
X68173Y-12337D01*
X68174Y-12333D01*
X68176Y-12327D01*
X68178Y-12325D01*
X68184Y-12323D01*
X68188Y-12323D01*
X68194Y-12326D01*
X68202Y-12334D01*
X68204Y-12340D01*
X68203Y-12344D01*
X68201Y-12350D01*
X68199Y-12352D01*
X68193Y-12354D01*
X68189Y-12354D01*
X68183Y-12351D01*
X68175Y-12343D01*
X68169Y-12341D01*
X68165Y-12340D01*
X68159Y-12342D01*
X68151Y-12350D01*
X68148Y-12356D01*
X68148Y-12360D01*
X68150Y-12366D01*
X68158Y-12375D01*
X68164Y-12377D01*
X68168Y-12377D01*
X68174Y-12375D01*
X68182Y-12367D01*
X68184Y-12362D01*
X68185Y-12357D01*
X68183Y-12351D01*
X67677Y-12721D02*
X67718Y-12677D01*
X67728Y-12687D01*
X67733Y-12695D01*
X67733Y-12703D01*
X67731Y-12709D01*
X67726Y-12719D01*
X67720Y-12726D01*
X67710Y-12732D01*
X67704Y-12734D01*
X67696Y-12735D01*
X67688Y-12731D01*
X67677Y-12721D01*
X67724Y-12764D02*
X67732Y-12772D01*
X67738Y-12773D01*
X67742Y-12773D01*
X67752Y-12771D01*
X67762Y-12764D01*
X67777Y-12747D01*
X67779Y-12741D01*
X67779Y-12737D01*
X67777Y-12731D01*
X67768Y-12724D01*
X67762Y-12722D01*
X67758Y-12722D01*
X67752Y-12724D01*
X67743Y-12735D01*
X67741Y-12741D01*
X67741Y-12745D01*
X67743Y-12751D01*
X67752Y-12759D01*
X67758Y-12760D01*
X67762Y-12760D01*
X67768Y-12758D01*
X67267Y-13131D02*
X67304Y-13083D01*
X67315Y-13092D01*
X67320Y-13099D01*
X67321Y-13107D01*
X67320Y-13114D01*
X67315Y-13124D01*
X67310Y-13131D01*
X67301Y-13139D01*
X67295Y-13141D01*
X67287Y-13142D01*
X67278Y-13139D01*
X67267Y-13131D01*
X67340Y-13186D02*
X67312Y-13166D01*
X67326Y-13176D02*
X67362Y-13128D01*
X67353Y-13132D01*
X67345Y-13133D01*
X67338Y-13132D01*
X67406Y-13161D02*
X67410Y-13165D01*
X67413Y-13171D01*
X67413Y-13175D01*
X67412Y-13181D01*
X67407Y-13192D01*
X67399Y-13203D01*
X67390Y-13210D01*
X67384Y-13213D01*
X67380Y-13214D01*
X67374Y-13213D01*
X67369Y-13209D01*
X67366Y-13203D01*
X67366Y-13199D01*
X67367Y-13193D01*
X67372Y-13182D01*
X67380Y-13171D01*
X67389Y-13164D01*
X67395Y-13161D01*
X67399Y-13160D01*
X67406Y-13161D01*
X66917Y-13600D02*
X66949Y-13550D01*
X66961Y-13557D01*
X66967Y-13564D01*
X66969Y-13572D01*
X66968Y-13578D01*
X66964Y-13590D01*
X66960Y-13597D01*
X66951Y-13605D01*
X66946Y-13608D01*
X66938Y-13610D01*
X66929Y-13608D01*
X66917Y-13600D01*
X66994Y-13649D02*
X66965Y-13631D01*
X66980Y-13640D02*
X67012Y-13589D01*
X67002Y-13594D01*
X66994Y-13595D01*
X66988Y-13595D01*
X67042Y-13680D02*
X67013Y-13662D01*
X67028Y-13671D02*
X67060Y-13620D01*
X67051Y-13624D01*
X67043Y-13626D01*
X67036Y-13625D01*
X66606Y-14110D02*
X66634Y-14057D01*
X66646Y-14064D01*
X66653Y-14070D01*
X66655Y-14078D01*
X66655Y-14084D01*
X66652Y-14096D01*
X66648Y-14103D01*
X66640Y-14112D01*
X66635Y-14116D01*
X66627Y-14118D01*
X66619Y-14117D01*
X66606Y-14110D01*
X66687Y-14152D02*
X66657Y-14137D01*
X66672Y-14145D02*
X66699Y-14091D01*
X66690Y-14096D01*
X66683Y-14099D01*
X66676Y-14099D01*
X66732Y-14115D02*
X66736Y-14114D01*
X66743Y-14114D01*
X66755Y-14120D01*
X66759Y-14125D01*
X66760Y-14129D01*
X66760Y-14136D01*
X66757Y-14141D01*
X66751Y-14147D01*
X66705Y-14162D01*
X66738Y-14179D01*
X66354Y-14622D02*
X66377Y-14566D01*
X66390Y-14572D01*
X66397Y-14578D01*
X66400Y-14585D01*
X66400Y-14591D01*
X66399Y-14603D01*
X66395Y-14611D01*
X66388Y-14620D01*
X66384Y-14625D01*
X66376Y-14628D01*
X66367Y-14627D01*
X66354Y-14622D01*
X66438Y-14657D02*
X66407Y-14644D01*
X66423Y-14650D02*
X66445Y-14595D01*
X66437Y-14600D01*
X66429Y-14603D01*
X66423Y-14604D01*
X66480Y-14609D02*
X66514Y-14623D01*
X66487Y-14637D01*
X66495Y-14640D01*
X66499Y-14645D01*
X66501Y-14648D01*
X66501Y-14655D01*
X66496Y-14668D01*
X66491Y-14672D01*
X66487Y-14674D01*
X66481Y-14674D01*
X66465Y-14668D01*
X66461Y-14663D01*
X66459Y-14659D01*
X66122Y-15174D02*
X66140Y-15117D01*
X66153Y-15121D01*
X66161Y-15126D01*
X66164Y-15133D01*
X66165Y-15140D01*
X66165Y-15151D01*
X66162Y-15160D01*
X66156Y-15170D01*
X66151Y-15174D01*
X66144Y-15178D01*
X66135Y-15178D01*
X66122Y-15174D01*
X66209Y-15201D02*
X66176Y-15191D01*
X66192Y-15196D02*
X66210Y-15139D01*
X66202Y-15145D01*
X66195Y-15149D01*
X66189Y-15150D01*
X66270Y-15179D02*
X66258Y-15217D01*
X66263Y-15153D02*
X66237Y-15189D01*
X66272Y-15200D01*
X65968Y-15747D02*
X65981Y-15689D01*
X65995Y-15692D01*
X66003Y-15696D01*
X66007Y-15703D01*
X66009Y-15709D01*
X66009Y-15721D01*
X66007Y-15729D01*
X66002Y-15740D01*
X65998Y-15745D01*
X65991Y-15749D01*
X65982Y-15750D01*
X65968Y-15747D01*
X66057Y-15767D02*
X66024Y-15760D01*
X66041Y-15763D02*
X66054Y-15705D01*
X66046Y-15712D01*
X66039Y-15716D01*
X66033Y-15718D01*
X66123Y-15720D02*
X66096Y-15714D01*
X66087Y-15741D01*
X66090Y-15739D01*
X66096Y-15737D01*
X66110Y-15741D01*
X66115Y-15745D01*
X66117Y-15748D01*
X66119Y-15754D01*
X66116Y-15768D01*
X66112Y-15773D01*
X66108Y-15775D01*
X66102Y-15777D01*
X66088Y-15774D01*
X66083Y-15770D01*
X66081Y-15766D01*
X65835Y-16322D02*
X65843Y-16262D01*
X65857Y-16264D01*
X65865Y-16268D01*
X65870Y-16274D01*
X65872Y-16281D01*
X65873Y-16292D01*
X65872Y-16301D01*
X65868Y-16312D01*
X65864Y-16317D01*
X65858Y-16322D01*
X65849Y-16324D01*
X65835Y-16322D01*
X65925Y-16334D02*
X65891Y-16329D01*
X65908Y-16331D02*
X65916Y-16272D01*
X65909Y-16280D01*
X65903Y-16285D01*
X65897Y-16287D01*
X65984Y-16281D02*
X65973Y-16279D01*
X65967Y-16282D01*
X65964Y-16284D01*
X65957Y-16292D01*
X65953Y-16303D01*
X65950Y-16325D01*
X65952Y-16331D01*
X65954Y-16335D01*
X65959Y-16338D01*
X65971Y-16340D01*
X65977Y-16338D01*
X65980Y-16335D01*
X65984Y-16330D01*
X65985Y-16316D01*
X65983Y-16310D01*
X65981Y-16306D01*
X65976Y-16303D01*
X65964Y-16301D01*
X65958Y-16303D01*
X65955Y-16306D01*
X65951Y-16311D01*
X68021Y-16960D02*
X68018Y-16963D01*
X68010Y-16966D01*
X68004Y-16966D01*
X67995Y-16963D01*
X67990Y-16957D01*
X67987Y-16951D01*
X67984Y-16940D01*
X67984Y-16931D01*
X67987Y-16920D01*
X67990Y-16914D01*
X67995Y-16909D01*
X68004Y-16906D01*
X68010Y-16906D01*
X68018Y-16909D01*
X68021Y-16911D01*
X68044Y-16911D02*
X68047Y-16909D01*
X68052Y-16906D01*
X68067Y-16906D01*
X68072Y-16909D01*
X68075Y-16911D01*
X68078Y-16917D01*
X68078Y-16923D01*
X68075Y-16931D01*
X68041Y-16966D01*
X68078Y-16966D01*
X71816Y-12785D02*
X71819Y-12788D01*
X71822Y-12797D01*
X71822Y-12802D01*
X71819Y-12811D01*
X71813Y-12817D01*
X71808Y-12819D01*
X71796Y-12822D01*
X71788Y-12822D01*
X71776Y-12819D01*
X71771Y-12817D01*
X71765Y-12811D01*
X71762Y-12802D01*
X71762Y-12797D01*
X71765Y-12788D01*
X71768Y-12785D01*
X71822Y-12728D02*
X71822Y-12762D01*
X71822Y-12745D02*
X71762Y-12745D01*
X71771Y-12751D01*
X71776Y-12757D01*
X71779Y-12762D01*
X69904Y-14760D02*
X69904Y-14764D01*
X69900Y-14772D01*
X69896Y-14777D01*
X69888Y-14781D01*
X69879Y-14781D01*
X69873Y-14779D01*
X69863Y-14772D01*
X69857Y-14766D01*
X69851Y-14756D01*
X69849Y-14750D01*
X69849Y-14742D01*
X69853Y-14734D01*
X69857Y-14730D01*
X69865Y-14726D01*
X69869Y-14726D01*
X69879Y-14708D02*
X69906Y-14682D01*
X69908Y-14712D01*
X69914Y-14706D01*
X69920Y-14704D01*
X69924Y-14704D01*
X69930Y-14706D01*
X69940Y-14716D01*
X69942Y-14722D01*
X69942Y-14726D01*
X69940Y-14732D01*
X69928Y-14744D01*
X69922Y-14746D01*
X69918Y-14746D01*
M02*
