G04 (created by PCBNEW (2013-jul-07)-stable) date Tue 08 Dec 2015 07:39:13 AM CST*
%MOIN*%
G04 Gerber Fmt 3.4, Leading zero omitted, Abs format*
%FSLAX34Y34*%
G01*
G70*
G90*
G04 APERTURE LIST*
%ADD10C,0.00590551*%
%ADD11C,0.00511811*%
%ADD12C,0.0028*%
G04 APERTURE END LIST*
G54D10*
G54D11*
X68548Y-11554D02*
X68418Y-11684D01*
X68742Y-11749D01*
X68613Y-11879D01*
X68455Y-12037D02*
X68353Y-11935D01*
X68343Y-11907D01*
X68353Y-11879D01*
X68390Y-11842D01*
X68418Y-11832D01*
X68445Y-12027D02*
X68473Y-12018D01*
X68520Y-11972D01*
X68529Y-11944D01*
X68520Y-11916D01*
X68501Y-11897D01*
X68473Y-11888D01*
X68445Y-11897D01*
X68399Y-11944D01*
X68371Y-11953D01*
X68269Y-12204D02*
X68297Y-12194D01*
X68334Y-12157D01*
X68343Y-12129D01*
X68343Y-12111D01*
X68334Y-12083D01*
X68278Y-12027D01*
X68251Y-12018D01*
X68232Y-12018D01*
X68204Y-12027D01*
X68167Y-12064D01*
X68158Y-12092D01*
X68195Y-12296D02*
X68000Y-12102D01*
X68111Y-12380D02*
X68009Y-12278D01*
X68000Y-12250D01*
X68009Y-12222D01*
X68037Y-12194D01*
X68065Y-12185D01*
X68084Y-12185D01*
X67703Y-12584D02*
X67768Y-12519D01*
X67870Y-12621D02*
X67675Y-12426D01*
X67582Y-12519D01*
X67703Y-12788D02*
X67573Y-12658D01*
X67610Y-12695D02*
X67582Y-12686D01*
X67564Y-12686D01*
X67536Y-12695D01*
X67518Y-12714D01*
X67499Y-12974D02*
X67527Y-12965D01*
X67564Y-12927D01*
X67573Y-12900D01*
X67564Y-12872D01*
X67490Y-12798D01*
X67462Y-12788D01*
X67434Y-12798D01*
X67397Y-12835D01*
X67388Y-12863D01*
X67397Y-12890D01*
X67415Y-12909D01*
X67527Y-12835D01*
X67332Y-13159D02*
X67137Y-12965D01*
X67323Y-13150D02*
X67350Y-13141D01*
X67388Y-13104D01*
X67397Y-13076D01*
X67397Y-13057D01*
X67388Y-13030D01*
X67332Y-12974D01*
X67304Y-12965D01*
X67286Y-12965D01*
X67258Y-12974D01*
X67221Y-13011D01*
X67211Y-13039D01*
X67239Y-13252D02*
X67109Y-13122D01*
X67044Y-13057D02*
X67063Y-13057D01*
X67063Y-13076D01*
X67044Y-13076D01*
X67044Y-13057D01*
X67063Y-13076D01*
X67016Y-13215D02*
X67146Y-13345D01*
X67035Y-13234D02*
X67016Y-13234D01*
X66989Y-13243D01*
X66961Y-13271D01*
X66951Y-13299D01*
X66961Y-13327D01*
X67063Y-13429D01*
X69311Y-11798D02*
X69116Y-11603D01*
X69070Y-11650D01*
X69051Y-11687D01*
X69051Y-11724D01*
X69061Y-11752D01*
X69089Y-11798D01*
X69116Y-11826D01*
X69163Y-11854D01*
X69191Y-11863D01*
X69228Y-11863D01*
X69265Y-11845D01*
X69311Y-11798D01*
X69033Y-12058D02*
X69061Y-12049D01*
X69098Y-12012D01*
X69107Y-11984D01*
X69098Y-11956D01*
X69024Y-11882D01*
X68996Y-11872D01*
X68968Y-11882D01*
X68931Y-11919D01*
X68922Y-11947D01*
X68931Y-11974D01*
X68949Y-11993D01*
X69061Y-11919D01*
X68857Y-12234D02*
X68884Y-12225D01*
X68922Y-12188D01*
X68931Y-12160D01*
X68931Y-12142D01*
X68922Y-12114D01*
X68866Y-12058D01*
X68838Y-12049D01*
X68819Y-12049D01*
X68792Y-12058D01*
X68754Y-12095D01*
X68745Y-12123D01*
X68699Y-12392D02*
X68727Y-12383D01*
X68764Y-12346D01*
X68773Y-12318D01*
X68764Y-12290D01*
X68690Y-12216D01*
X68662Y-12206D01*
X68634Y-12216D01*
X68597Y-12253D01*
X68587Y-12281D01*
X68597Y-12309D01*
X68615Y-12327D01*
X68727Y-12253D01*
X68615Y-12494D02*
X68485Y-12364D01*
X68504Y-12383D02*
X68485Y-12383D01*
X68458Y-12392D01*
X68430Y-12420D01*
X68420Y-12448D01*
X68430Y-12476D01*
X68532Y-12578D01*
X68430Y-12476D02*
X68402Y-12466D01*
X68374Y-12476D01*
X68346Y-12503D01*
X68337Y-12531D01*
X68346Y-12559D01*
X68448Y-12661D01*
X68355Y-12754D02*
X68161Y-12559D01*
X68235Y-12633D02*
X68207Y-12643D01*
X68170Y-12680D01*
X68161Y-12708D01*
X68161Y-12726D01*
X68170Y-12754D01*
X68226Y-12810D01*
X68253Y-12819D01*
X68272Y-12819D01*
X68300Y-12810D01*
X68337Y-12773D01*
X68346Y-12745D01*
X68096Y-12995D02*
X68123Y-12986D01*
X68161Y-12949D01*
X68170Y-12921D01*
X68161Y-12893D01*
X68086Y-12819D01*
X68059Y-12810D01*
X68031Y-12819D01*
X67994Y-12856D01*
X67984Y-12884D01*
X67994Y-12912D01*
X68012Y-12930D01*
X68123Y-12856D01*
X68012Y-13097D02*
X67882Y-12967D01*
X67919Y-13005D02*
X67891Y-12995D01*
X67873Y-12995D01*
X67845Y-13005D01*
X67827Y-13023D01*
X67576Y-13181D02*
X67557Y-13181D01*
X67530Y-13190D01*
X67483Y-13236D01*
X67474Y-13264D01*
X67474Y-13283D01*
X67483Y-13311D01*
X67502Y-13329D01*
X67539Y-13348D01*
X67762Y-13348D01*
X67641Y-13468D01*
X67325Y-13394D02*
X67307Y-13413D01*
X67298Y-13441D01*
X67298Y-13459D01*
X67307Y-13487D01*
X67335Y-13533D01*
X67381Y-13580D01*
X67428Y-13608D01*
X67455Y-13617D01*
X67474Y-13617D01*
X67502Y-13608D01*
X67520Y-13589D01*
X67530Y-13561D01*
X67530Y-13543D01*
X67520Y-13515D01*
X67492Y-13468D01*
X67446Y-13422D01*
X67400Y-13394D01*
X67372Y-13385D01*
X67353Y-13385D01*
X67325Y-13394D01*
X67270Y-13840D02*
X67381Y-13728D01*
X67325Y-13784D02*
X67131Y-13589D01*
X67177Y-13598D01*
X67214Y-13598D01*
X67242Y-13589D01*
X66899Y-13821D02*
X66991Y-13728D01*
X67093Y-13812D01*
X67075Y-13812D01*
X67047Y-13821D01*
X67001Y-13868D01*
X66991Y-13895D01*
X66991Y-13914D01*
X67001Y-13942D01*
X67047Y-13988D01*
X67075Y-13997D01*
X67093Y-13997D01*
X67121Y-13988D01*
X67168Y-13942D01*
X67177Y-13914D01*
X67177Y-13895D01*
G54D12*
X72197Y-13249D02*
X72197Y-13449D01*
X72197Y-13449D02*
X71897Y-13449D01*
X71897Y-13449D02*
X71897Y-13249D01*
X72197Y-13049D02*
X72197Y-12849D01*
X72197Y-12849D02*
X71897Y-12849D01*
X71897Y-12849D02*
X71897Y-13049D01*
X68201Y-15907D02*
X68201Y-16107D01*
X68201Y-16107D02*
X67901Y-16107D01*
X67901Y-16107D02*
X67901Y-15907D01*
X68201Y-15707D02*
X68201Y-15507D01*
X68201Y-15507D02*
X67901Y-15507D01*
X67901Y-15507D02*
X67901Y-15707D01*
G54D10*
X73139Y-12135D02*
X73210Y-12099D01*
X73210Y-12099D02*
X73632Y-12945D01*
X73632Y-12945D02*
X73561Y-12980D01*
X72753Y-11359D02*
X73948Y-13755D01*
X73948Y-13755D02*
X73102Y-14177D01*
X73102Y-14177D02*
X71907Y-11781D01*
X71907Y-11781D02*
X72753Y-11359D01*
X67887Y-18208D02*
X67850Y-18278D01*
X67850Y-18278D02*
X67012Y-17842D01*
X67012Y-17842D02*
X67048Y-17772D01*
X68655Y-18608D02*
X66280Y-17372D01*
X66280Y-17372D02*
X66717Y-16534D01*
X66717Y-16534D02*
X69091Y-17770D01*
X69091Y-17770D02*
X68655Y-18608D01*
X68017Y-15235D02*
X67127Y-14344D01*
X67127Y-14344D02*
X67572Y-13898D01*
X67572Y-13898D02*
X68463Y-14789D01*
X68463Y-14789D02*
X68017Y-15235D01*
X70025Y-13227D02*
X69135Y-12336D01*
X69135Y-12336D02*
X69580Y-11890D01*
X69580Y-11890D02*
X70471Y-12781D01*
X70471Y-12781D02*
X70025Y-13227D01*
G54D12*
X71503Y-10805D02*
X71503Y-10605D01*
X71503Y-10605D02*
X71803Y-10605D01*
X71803Y-10605D02*
X71803Y-10805D01*
X71503Y-11005D02*
X71503Y-11205D01*
X71503Y-11205D02*
X71803Y-11205D01*
X71803Y-11205D02*
X71803Y-11005D01*
X70932Y-10903D02*
X70932Y-10703D01*
X70932Y-10703D02*
X71232Y-10703D01*
X71232Y-10703D02*
X71232Y-10903D01*
X70932Y-11103D02*
X70932Y-11303D01*
X70932Y-11303D02*
X71232Y-11303D01*
X71232Y-11303D02*
X71232Y-11103D01*
X70342Y-11041D02*
X70342Y-10841D01*
X70342Y-10841D02*
X70642Y-10841D01*
X70642Y-10841D02*
X70642Y-11041D01*
X70342Y-11241D02*
X70342Y-11441D01*
X70342Y-11441D02*
X70642Y-11441D01*
X70642Y-11441D02*
X70642Y-11241D01*
X69771Y-11238D02*
X69771Y-11038D01*
X69771Y-11038D02*
X70071Y-11038D01*
X70071Y-11038D02*
X70071Y-11238D01*
X69771Y-11438D02*
X69771Y-11638D01*
X69771Y-11638D02*
X70071Y-11638D01*
X70071Y-11638D02*
X70071Y-11438D01*
X71709Y-10885D02*
X71643Y-10845D01*
X71709Y-10816D02*
X71571Y-10816D01*
X71571Y-10862D01*
X71577Y-10874D01*
X71584Y-10879D01*
X71597Y-10885D01*
X71617Y-10885D01*
X71630Y-10879D01*
X71637Y-10874D01*
X71643Y-10862D01*
X71643Y-10816D01*
X71571Y-10988D02*
X71571Y-10965D01*
X71577Y-10954D01*
X71584Y-10948D01*
X71604Y-10936D01*
X71630Y-10931D01*
X71683Y-10931D01*
X71696Y-10936D01*
X71702Y-10942D01*
X71709Y-10954D01*
X71709Y-10976D01*
X71702Y-10988D01*
X71696Y-10994D01*
X71683Y-10999D01*
X71650Y-10999D01*
X71637Y-10994D01*
X71630Y-10988D01*
X71623Y-10976D01*
X71623Y-10954D01*
X71630Y-10942D01*
X71637Y-10936D01*
X71650Y-10931D01*
X71138Y-10983D02*
X71072Y-10943D01*
X71138Y-10915D02*
X71000Y-10915D01*
X71000Y-10961D01*
X71007Y-10972D01*
X71013Y-10978D01*
X71026Y-10983D01*
X71046Y-10983D01*
X71059Y-10978D01*
X71066Y-10972D01*
X71072Y-10961D01*
X71072Y-10915D01*
X71046Y-11086D02*
X71138Y-11086D01*
X70993Y-11058D02*
X71092Y-11029D01*
X71092Y-11103D01*
X70547Y-11121D02*
X70482Y-11081D01*
X70547Y-11053D02*
X70409Y-11053D01*
X70409Y-11098D01*
X70416Y-11110D01*
X70423Y-11116D01*
X70436Y-11121D01*
X70455Y-11121D01*
X70469Y-11116D01*
X70475Y-11110D01*
X70482Y-11098D01*
X70482Y-11053D01*
X70409Y-11230D02*
X70409Y-11173D01*
X70475Y-11167D01*
X70469Y-11173D01*
X70462Y-11184D01*
X70462Y-11213D01*
X70469Y-11224D01*
X70475Y-11230D01*
X70488Y-11236D01*
X70521Y-11236D01*
X70534Y-11230D01*
X70541Y-11224D01*
X70547Y-11213D01*
X70547Y-11184D01*
X70541Y-11173D01*
X70534Y-11167D01*
X69977Y-11318D02*
X69911Y-11278D01*
X69977Y-11250D02*
X69839Y-11250D01*
X69839Y-11295D01*
X69845Y-11307D01*
X69852Y-11312D01*
X69865Y-11318D01*
X69885Y-11318D01*
X69898Y-11312D01*
X69904Y-11307D01*
X69911Y-11295D01*
X69911Y-11250D01*
X69977Y-11432D02*
X69977Y-11364D01*
X69977Y-11398D02*
X69839Y-11398D01*
X69858Y-11387D01*
X69871Y-11375D01*
X69878Y-11364D01*
M02*
