G04 (created by PCBNEW (2013-jul-07)-stable) date Mon 07 Dec 2015 11:18:03 PM CST*
%MOIN*%
G04 Gerber Fmt 3.4, Leading zero omitted, Abs format*
%FSLAX34Y34*%
G01*
G70*
G90*
G04 APERTURE LIST*
%ADD10C,0.00590551*%
%ADD11R,0.0315X0.0275*%
%ADD12R,0.0275X0.0315*%
%ADD13R,0.0314961X0.00984252*%
%ADD14R,0.00984252X0.0314961*%
%ADD15C,0.11811*%
G04 APERTURE END LIST*
G54D10*
G36*
X71544Y-10843D02*
X71817Y-10807D01*
X71858Y-11120D01*
X71585Y-11155D01*
X71544Y-10843D01*
X71544Y-10843D01*
G37*
G36*
X71488Y-10415D02*
X71760Y-10379D01*
X71801Y-10691D01*
X71529Y-10727D01*
X71488Y-10415D01*
X71488Y-10415D01*
G37*
G36*
X70980Y-10953D02*
X71249Y-10893D01*
X71317Y-11201D01*
X71048Y-11260D01*
X70980Y-10953D01*
X70980Y-10953D01*
G37*
G36*
X70887Y-10531D02*
X71155Y-10471D01*
X71223Y-10779D01*
X70955Y-10838D01*
X70887Y-10531D01*
X70887Y-10531D01*
G37*
G36*
X70417Y-11101D02*
X70680Y-11018D01*
X70774Y-11318D01*
X70512Y-11401D01*
X70417Y-11101D01*
X70417Y-11101D01*
G37*
G36*
X70288Y-10689D02*
X70550Y-10606D01*
X70645Y-10906D01*
X70382Y-10989D01*
X70288Y-10689D01*
X70288Y-10689D01*
G37*
G36*
X69875Y-11307D02*
X70129Y-11202D01*
X70250Y-11493D01*
X69996Y-11598D01*
X69875Y-11307D01*
X69875Y-11307D01*
G37*
G36*
X69710Y-10908D02*
X69964Y-10803D01*
X70084Y-11094D01*
X69830Y-11199D01*
X69710Y-10908D01*
X69710Y-10908D01*
G37*
G36*
X69373Y-11572D02*
X69617Y-11445D01*
X69762Y-11724D01*
X69519Y-11851D01*
X69373Y-11572D01*
X69373Y-11572D01*
G37*
G36*
X69174Y-11188D02*
X69418Y-11061D01*
X69563Y-11341D01*
X69319Y-11468D01*
X69174Y-11188D01*
X69174Y-11188D01*
G37*
G36*
X68872Y-11875D02*
X69104Y-11727D01*
X69273Y-11993D01*
X69041Y-12140D01*
X68872Y-11875D01*
X68872Y-11875D01*
G37*
G36*
X68640Y-11510D02*
X68871Y-11363D01*
X69041Y-11628D01*
X68809Y-11776D01*
X68640Y-11510D01*
X68640Y-11510D01*
G37*
G36*
X68391Y-12216D02*
X68609Y-12049D01*
X68801Y-12299D01*
X68582Y-12466D01*
X68391Y-12216D01*
X68391Y-12216D01*
G37*
G36*
X68128Y-11874D02*
X68346Y-11706D01*
X68538Y-11956D01*
X68319Y-12123D01*
X68128Y-11874D01*
X68128Y-11874D01*
G37*
G36*
X67949Y-12596D02*
X68152Y-12410D01*
X68365Y-12643D01*
X68162Y-12828D01*
X67949Y-12596D01*
X67949Y-12596D01*
G37*
G36*
X67658Y-12278D02*
X67860Y-12092D01*
X68073Y-12324D01*
X67870Y-12510D01*
X67658Y-12278D01*
X67658Y-12278D01*
G37*
G36*
X67548Y-13014D02*
X67734Y-12812D01*
X67966Y-13024D01*
X67780Y-13227D01*
X67548Y-13014D01*
X67548Y-13014D01*
G37*
G36*
X67230Y-12723D02*
X67415Y-12520D01*
X67648Y-12733D01*
X67462Y-12935D01*
X67230Y-12723D01*
X67230Y-12723D01*
G37*
G36*
X67187Y-13451D02*
X67354Y-13233D01*
X67604Y-13425D01*
X67437Y-13643D01*
X67187Y-13451D01*
X67187Y-13451D01*
G37*
G36*
X66844Y-13188D02*
X67011Y-12970D01*
X67261Y-13162D01*
X67094Y-13380D01*
X66844Y-13188D01*
X66844Y-13188D01*
G37*
G36*
X66865Y-13926D02*
X67012Y-13694D01*
X67278Y-13864D01*
X67130Y-14096D01*
X66865Y-13926D01*
X66865Y-13926D01*
G37*
G36*
X66500Y-13694D02*
X66648Y-13462D01*
X66914Y-13632D01*
X66766Y-13864D01*
X66500Y-13694D01*
X66500Y-13694D01*
G37*
G36*
X66582Y-14440D02*
X66709Y-14196D01*
X66989Y-14341D01*
X66862Y-14585D01*
X66582Y-14440D01*
X66582Y-14440D01*
G37*
G36*
X66199Y-14240D02*
X66326Y-13996D01*
X66606Y-14142D01*
X66479Y-14386D01*
X66199Y-14240D01*
X66199Y-14240D01*
G37*
G36*
X66359Y-14952D02*
X66464Y-14698D01*
X66755Y-14819D01*
X66650Y-15073D01*
X66359Y-14952D01*
X66359Y-14952D01*
G37*
G36*
X65960Y-14787D02*
X66065Y-14533D01*
X66356Y-14653D01*
X66251Y-14907D01*
X65960Y-14787D01*
X65960Y-14787D01*
G37*
G36*
X66156Y-15503D02*
X66238Y-15240D01*
X66539Y-15335D01*
X66456Y-15597D01*
X66156Y-15503D01*
X66156Y-15503D01*
G37*
G36*
X65744Y-15373D02*
X65826Y-15110D01*
X66127Y-15205D01*
X66044Y-15467D01*
X65744Y-15373D01*
X65744Y-15373D01*
G37*
G36*
X66031Y-16072D02*
X66090Y-15803D01*
X66398Y-15871D01*
X66338Y-16140D01*
X66031Y-16072D01*
X66031Y-16072D01*
G37*
G36*
X65609Y-15978D02*
X65669Y-15710D01*
X65976Y-15778D01*
X65917Y-16046D01*
X65609Y-15978D01*
X65609Y-15978D01*
G37*
G36*
X65925Y-16640D02*
X65961Y-16367D01*
X66274Y-16408D01*
X66238Y-16681D01*
X65925Y-16640D01*
X65925Y-16640D01*
G37*
G36*
X65497Y-16583D02*
X65533Y-16310D01*
X65845Y-16352D01*
X65809Y-16624D01*
X65497Y-16583D01*
X65497Y-16583D01*
G37*
G54D11*
X67815Y-16751D03*
X68247Y-16751D03*
G54D12*
X71988Y-12559D03*
X71988Y-12991D03*
G54D10*
G36*
X69625Y-14550D02*
X69819Y-14744D01*
X69596Y-14967D01*
X69402Y-14773D01*
X69625Y-14550D01*
X69625Y-14550D01*
G37*
G36*
X69930Y-14244D02*
X70125Y-14439D01*
X69902Y-14662D01*
X69707Y-14467D01*
X69930Y-14244D01*
X69930Y-14244D01*
G37*
G54D13*
X67480Y-15334D03*
X67480Y-15531D03*
X67480Y-15728D03*
X67480Y-15925D03*
X67480Y-15137D03*
X67480Y-14940D03*
X68582Y-15531D03*
X68582Y-15728D03*
X68582Y-15925D03*
X68582Y-15334D03*
X68582Y-15137D03*
X68582Y-14940D03*
G54D14*
X67933Y-16220D03*
X68129Y-16220D03*
X67933Y-14645D03*
X68129Y-14645D03*
X70767Y-12244D03*
X70570Y-12244D03*
X70374Y-12244D03*
X70177Y-12244D03*
X70964Y-12244D03*
X71161Y-12244D03*
X70570Y-13346D03*
X70374Y-13346D03*
X70177Y-13346D03*
X70767Y-13346D03*
X70964Y-13346D03*
X71161Y-13346D03*
G54D13*
X69881Y-12696D03*
X69881Y-12893D03*
X71456Y-12696D03*
X71456Y-12893D03*
G54D10*
G36*
X69575Y-16386D02*
X69985Y-15976D01*
X70101Y-16093D01*
X69692Y-16502D01*
X69575Y-16386D01*
X69575Y-16386D01*
G37*
G36*
X70595Y-14291D02*
X71004Y-13882D01*
X71116Y-13993D01*
X70706Y-14403D01*
X70595Y-14291D01*
X70595Y-14291D01*
G37*
G36*
X69032Y-15843D02*
X69442Y-15433D01*
X69558Y-15550D01*
X69149Y-15959D01*
X69032Y-15843D01*
X69032Y-15843D01*
G37*
G36*
X69213Y-16024D02*
X69623Y-15614D01*
X69739Y-15731D01*
X69330Y-16140D01*
X69213Y-16024D01*
X69213Y-16024D01*
G37*
G36*
X69394Y-16205D02*
X69804Y-15795D01*
X69920Y-15912D01*
X69511Y-16321D01*
X69394Y-16205D01*
X69394Y-16205D01*
G37*
G36*
X71134Y-14827D02*
X71543Y-14418D01*
X71660Y-14535D01*
X71251Y-14944D01*
X71134Y-14827D01*
X71134Y-14827D01*
G37*
G36*
X70953Y-14646D02*
X71362Y-14237D01*
X71479Y-14354D01*
X71069Y-14763D01*
X70953Y-14646D01*
X70953Y-14646D01*
G37*
G36*
X70770Y-14467D02*
X71180Y-14057D01*
X71296Y-14174D01*
X70887Y-14583D01*
X70770Y-14467D01*
X70770Y-14467D01*
G37*
G54D15*
X70043Y-18142D02*
X70321Y-18421D01*
X73300Y-14885D02*
X73578Y-15164D01*
G54D10*
G36*
X72172Y-15400D02*
X71616Y-14844D01*
X71950Y-14509D01*
X72506Y-15066D01*
X72172Y-15400D01*
X72172Y-15400D01*
G37*
G36*
X71476Y-16096D02*
X70920Y-15539D01*
X71254Y-15205D01*
X71811Y-15762D01*
X71476Y-16096D01*
X71476Y-16096D01*
G37*
G36*
X70920Y-16653D02*
X70363Y-16096D01*
X70697Y-15762D01*
X71254Y-16319D01*
X70920Y-16653D01*
X70920Y-16653D01*
G37*
G36*
X70224Y-17349D02*
X69667Y-16792D01*
X70001Y-16458D01*
X70558Y-17015D01*
X70224Y-17349D01*
X70224Y-17349D01*
G37*
M02*
