M48
;DRILL file {Pcbnew (2013-jul-07)-stable} date Tue 08 Dec 2015 07:39:15 AM CST
;FORMAT={3:3/ absolute / metric / keep zeros}
FMAT,2
METRIC,TZ
T1C0.350
T2C2.500
%
G90
G05
M71
T1
X166150Y-041750
X166425Y-040150
X166850Y-038625
X167400Y-037125
X168050Y-035725
X168850Y-034325
X169750Y-033050
X170750Y-031850
X171900Y-030700
X172050Y-042150
X172850Y-038800
X173125Y-029675
X173550Y-033700
X174100Y-041350
X174450Y-028750
X175100Y-037400
X175825Y-027950
X175950Y-036900
X176300Y-042100
X176700Y-044250
X177100Y-035200
X177250Y-027250
X177400Y-038400
X178200Y-039750
X178550Y-035050
X178800Y-026700
X179000Y-032900
X179550Y-037350
X179800Y-043800
X179850Y-038800
X179950Y-032650
X180300Y-026300
X180600Y-038150
X180650Y-042900
X181500Y-033450
X181600Y-031200
X181700Y-038300
X181900Y-026050
X182650Y-034700
X183800Y-037100
X184100Y-032950
T2
X178263Y-046437
X186537Y-038163
T0
M30
