G04 (created by PCBNEW (2013-jul-07)-stable) date Tue 08 Dec 2015 07:46:21 AM CST*
%MOIN*%
G04 Gerber Fmt 3.4, Leading zero omitted, Abs format*
%FSLAX34Y34*%
G01*
G70*
G90*
G04 APERTURE LIST*
%ADD10C,0.00590551*%
%ADD11R,0.0236X0.0157*%
%ADD12C,0.0590551*%
%ADD13C,0.11811*%
G04 APERTURE END LIST*
G54D10*
G54D11*
X72047Y-13326D03*
X72047Y-12972D03*
X68051Y-15984D03*
X68051Y-15630D03*
G54D10*
G36*
X71745Y-12236D02*
X72192Y-12013D01*
X72350Y-12330D01*
X71903Y-12553D01*
X71745Y-12236D01*
X71745Y-12236D01*
G37*
G36*
X72483Y-13716D02*
X72930Y-13493D01*
X73088Y-13810D01*
X72641Y-14033D01*
X72483Y-13716D01*
X72483Y-13716D01*
G37*
G36*
X73393Y-13702D02*
X73675Y-13561D01*
X73938Y-14090D01*
X73656Y-14230D01*
X73393Y-13702D01*
X73393Y-13702D01*
G37*
G36*
X72198Y-11306D02*
X72480Y-11165D01*
X72744Y-11694D01*
X72462Y-11834D01*
X72198Y-11306D01*
X72198Y-11306D01*
G37*
G36*
X68955Y-17307D02*
X68724Y-17750D01*
X68410Y-17587D01*
X68641Y-17143D01*
X68955Y-17307D01*
X68955Y-17307D01*
G37*
G36*
X67489Y-16543D02*
X67258Y-16987D01*
X66943Y-16823D01*
X67174Y-16380D01*
X67489Y-16543D01*
X67489Y-16543D01*
G37*
G36*
X66760Y-17089D02*
X66615Y-17369D01*
X66091Y-17096D01*
X66236Y-16817D01*
X66760Y-17089D01*
X66760Y-17089D01*
G37*
G36*
X69135Y-18326D02*
X68990Y-18605D01*
X68466Y-18332D01*
X68611Y-18053D01*
X69135Y-18326D01*
X69135Y-18326D01*
G37*
G36*
X67995Y-14460D02*
X68217Y-14237D01*
X68301Y-14321D01*
X68078Y-14543D01*
X67995Y-14460D01*
X67995Y-14460D01*
G37*
G36*
X67818Y-14283D02*
X68040Y-14060D01*
X68124Y-14144D01*
X67901Y-14367D01*
X67818Y-14283D01*
X67818Y-14283D01*
G37*
G36*
X68171Y-14637D02*
X68394Y-14414D01*
X68478Y-14498D01*
X68255Y-14720D01*
X68171Y-14637D01*
X68171Y-14637D01*
G37*
G36*
X67641Y-14106D02*
X67864Y-13884D01*
X67947Y-13967D01*
X67724Y-14190D01*
X67641Y-14106D01*
X67641Y-14106D01*
G37*
G36*
X67466Y-14989D02*
X67688Y-14766D01*
X67772Y-14850D01*
X67549Y-15072D01*
X67466Y-14989D01*
X67466Y-14989D01*
G37*
G36*
X67289Y-14812D02*
X67512Y-14589D01*
X67595Y-14673D01*
X67372Y-14896D01*
X67289Y-14812D01*
X67289Y-14812D01*
G37*
G36*
X67642Y-15166D02*
X67865Y-14943D01*
X67949Y-15026D01*
X67726Y-15249D01*
X67642Y-15166D01*
X67642Y-15166D01*
G37*
G36*
X67112Y-14635D02*
X67335Y-14413D01*
X67418Y-14496D01*
X67196Y-14719D01*
X67112Y-14635D01*
X67112Y-14635D01*
G37*
G36*
X67148Y-14031D02*
X67259Y-13919D01*
X67482Y-14142D01*
X67370Y-14253D01*
X67148Y-14031D01*
X67148Y-14031D01*
G37*
G36*
X68108Y-14991D02*
X68219Y-14880D01*
X68442Y-15102D01*
X68331Y-15214D01*
X68108Y-14991D01*
X68108Y-14991D01*
G37*
G54D12*
X69153Y-13996D03*
G54D10*
G36*
X70002Y-12452D02*
X70225Y-12229D01*
X70309Y-12313D01*
X70086Y-12536D01*
X70002Y-12452D01*
X70002Y-12452D01*
G37*
G36*
X69826Y-12275D02*
X70048Y-12053D01*
X70132Y-12136D01*
X69909Y-12359D01*
X69826Y-12275D01*
X69826Y-12275D01*
G37*
G36*
X70179Y-12629D02*
X70402Y-12406D01*
X70485Y-12490D01*
X70263Y-12712D01*
X70179Y-12629D01*
X70179Y-12629D01*
G37*
G36*
X69649Y-12099D02*
X69872Y-11876D01*
X69955Y-11959D01*
X69732Y-12182D01*
X69649Y-12099D01*
X69649Y-12099D01*
G37*
G36*
X69473Y-12981D02*
X69696Y-12758D01*
X69780Y-12842D01*
X69557Y-13065D01*
X69473Y-12981D01*
X69473Y-12981D01*
G37*
G36*
X69297Y-12804D02*
X69519Y-12582D01*
X69603Y-12665D01*
X69380Y-12888D01*
X69297Y-12804D01*
X69297Y-12804D01*
G37*
G36*
X69650Y-13158D02*
X69873Y-12935D01*
X69956Y-13019D01*
X69734Y-13241D01*
X69650Y-13158D01*
X69650Y-13158D01*
G37*
G36*
X69120Y-12627D02*
X69343Y-12405D01*
X69426Y-12488D01*
X69203Y-12711D01*
X69120Y-12627D01*
X69120Y-12627D01*
G37*
G36*
X69155Y-12023D02*
X69267Y-11911D01*
X69489Y-12134D01*
X69378Y-12245D01*
X69155Y-12023D01*
X69155Y-12023D01*
G37*
G36*
X70116Y-12983D02*
X70227Y-12872D01*
X70450Y-13094D01*
X70339Y-13206D01*
X70116Y-12983D01*
X70116Y-12983D01*
G37*
G54D13*
X70043Y-18142D02*
X70321Y-18421D01*
X73300Y-14885D02*
X73578Y-15164D01*
G54D12*
X71456Y-17303D03*
X72500Y-16259D03*
X71377Y-16220D03*
X72637Y-13799D03*
X68759Y-17303D03*
G54D11*
X71653Y-10728D03*
X71653Y-11082D03*
X71082Y-10826D03*
X71082Y-11180D03*
X70492Y-10964D03*
X70492Y-11318D03*
X69921Y-11161D03*
X69921Y-11515D03*
M02*
